<svg xmlns="http://www.w3.org/2000/svg" xmlns:xlink="http://www.w3.org/1999/xlink" viewBox="0 0 249.4 158.6"><defs><style>.cls-1{fill:url(#未命名的渐变_2);}.cls-2{fill:url(#未命名的渐变_2-2);}.cls-3{fill:url(#未命名的渐变_2-3);}.cls-4{fill:url(#未命名的渐变_2-4);}.cls-5{fill:url(#未命名的渐变_2-5);}.cls-6{fill:url(#未命名的渐变_2-6);}.cls-7{fill:url(#未命名的渐变_2-7);}.cls-8{fill:url(#未命名的渐变_2-8);}.cls-9{fill:url(#未命名的渐变_2-9);}.cls-10{fill:url(#未命名的渐变_2-10);}.cls-11{fill:url(#未命名的渐变_2-11);}.cls-12{fill:url(#未命名的渐变_2-12);}.cls-13{fill:url(#未命名的渐变_2-13);}.cls-14{fill:url(#未命名的渐变_2-14);}.cls-15{fill:url(#未命名的渐变_2-15);}.cls-16{fill:url(#未命名的渐变_2-16);}.cls-17{fill:url(#未命名的渐变_2-17);}.cls-18{fill:url(#未命名的渐变_2-18);}.cls-19{fill:none;stroke-linecap:round;stroke-linejoin:round;stroke-width:0.72px;stroke:url(#未命名的渐变_2-19);}.cls-20{fill:url(#未命名的渐变_2-20);}.cls-21{fill:url(#未命名的渐变_2-21);}.cls-22{fill:url(#未命名的渐变_2-22);}.cls-23{fill:url(#未命名的渐变_2-23);}.cls-24{fill:url(#未命名的渐变_2-24);}.cls-25{fill:url(#未命名的渐变_2-25);}.cls-26{fill:url(#未命名的渐变_2-26);}.cls-27{fill:url(#未命名的渐变_2-27);}.cls-28{fill:url(#未命名的渐变_2-28);}.cls-29{fill:url(#未命名的渐变_2-29);}.cls-30{fill:url(#未命名的渐变_2-30);}.cls-31{fill:url(#未命名的渐变_2-31);}.cls-32{fill:url(#未命名的渐变_2-32);}.cls-33{fill:url(#未命名的渐变_2-33);}.cls-34{fill:url(#未命名的渐变_2-34);}.cls-35{fill:url(#未命名的渐变_2-35);}.cls-36{fill:url(#未命名的渐变_2-36);}.cls-37{fill:url(#未命名的渐变_2-37);}.cls-38{fill:url(#未命名的渐变_2-38);}.cls-39{fill:url(#未命名的渐变_2-39);}.cls-40{fill:url(#未命名的渐变_2-40);}.cls-41{fill:url(#未命名的渐变_2-41);}.cls-42{fill:url(#未命名的渐变_2-42);}.cls-43{fill:url(#未命名的渐变_2-43);}.cls-44{fill:url(#未命名的渐变_2-44);}.cls-45{fill:url(#未命名的渐变_2-45);}.cls-46{fill:url(#未命名的渐变_2-46);}.cls-47{fill:url(#未命名的渐变_2-47);}.cls-48{fill:url(#未命名的渐变_2-48);}.cls-49{fill:url(#未命名的渐变_2-49);}.cls-50{fill:url(#未命名的渐变_2-50);}.cls-51{fill:url(#未命名的渐变_2-51);}.cls-52{fill:url(#未命名的渐变_2-52);}.cls-53{fill:url(#未命名的渐变_2-53);}.cls-54{fill:url(#未命名的渐变_2-54);}.cls-55{fill:url(#未命名的渐变_2-55);}.cls-56{fill:url(#未命名的渐变_2-56);}.cls-57{fill:url(#未命名的渐变_2-57);}.cls-58{fill:url(#未命名的渐变_2-58);}.cls-59{fill:url(#未命名的渐变_2-59);}.cls-60{fill:url(#未命名的渐变_2-60);}.cls-61{fill:url(#未命名的渐变_2-61);}.cls-62{fill:url(#未命名的渐变_2-62);}.cls-63{fill:url(#未命名的渐变_2-63);}.cls-64{fill:url(#未命名的渐变_2-64);}.cls-65{fill:url(#未命名的渐变_2-65);}.cls-66{fill:url(#未命名的渐变_2-66);}.cls-67{fill:url(#未命名的渐变_2-67);}.cls-68{fill:url(#未命名的渐变_2-68);}.cls-69{fill:url(#未命名的渐变_2-69);}.cls-70{fill:url(#未命名的渐变_2-70);}.cls-71{fill:url(#未命名的渐变_2-71);}.cls-72{fill:url(#未命名的渐变_2-72);}.cls-73{fill:url(#未命名的渐变_2-73);}.cls-74{fill:url(#未命名的渐变_2-74);}.cls-75{fill:url(#未命名的渐变_2-75);}.cls-76{fill:url(#未命名的渐变_2-76);}.cls-77{fill:url(#未命名的渐变_2-77);}.cls-78{fill:url(#未命名的渐变_2-78);}.cls-79{fill:url(#未命名的渐变_2-79);}.cls-80{fill:url(#未命名的渐变_2-80);}.cls-81{fill:url(#未命名的渐变_2-81);}.cls-82{fill:url(#未命名的渐变_2-82);}.cls-83{fill:url(#未命名的渐变_2-83);}.cls-84{fill:url(#未命名的渐变_2-84);}.cls-85{fill:url(#未命名的渐变_2-85);}.cls-86{fill:url(#未命名的渐变_2-86);}.cls-87{fill:url(#未命名的渐变_2-87);}.cls-88{fill:url(#未命名的渐变_2-88);}.cls-89{fill:url(#未命名的渐变_2-89);}.cls-90{fill:url(#未命名的渐变_2-90);}.cls-91{fill:url(#未命名的渐变_2-91);}.cls-92{fill:url(#未命名的渐变_2-92);}.cls-93{fill:url(#未命名的渐变_2-93);}.cls-94{fill:url(#未命名的渐变_2-94);}.cls-95{fill:url(#未命名的渐变_2-95);}.cls-96{fill:url(#未命名的渐变_2-96);}.cls-97{fill:url(#未命名的渐变_2-97);}.cls-98{fill:url(#未命名的渐变_2-98);}.cls-99{fill:url(#未命名的渐变_2-99);}.cls-100{fill:url(#未命名的渐变_2-100);}.cls-101{fill:url(#未命名的渐变_2-101);}.cls-102{fill:url(#未命名的渐变_2-102);}.cls-103{fill:url(#未命名的渐变_2-103);}.cls-104{fill:url(#未命名的渐变_2-104);}.cls-105{fill:url(#未命名的渐变_2-105);}.cls-106{fill:url(#未命名的渐变_2-106);}.cls-107{fill:url(#未命名的渐变_2-107);}.cls-108{fill:url(#未命名的渐变_2-108);}.cls-109{fill:url(#未命名的渐变_2-109);}.cls-110{fill:url(#未命名的渐变_2-110);}.cls-111{fill:url(#未命名的渐变_2-111);}.cls-112{fill:url(#未命名的渐变_2-112);}.cls-113{fill:url(#未命名的渐变_2-113);}.cls-114{fill:url(#未命名的渐变_2-114);}.cls-115{fill:url(#未命名的渐变_2-115);}.cls-116{fill:url(#未命名的渐变_2-116);}.cls-117{fill:url(#未命名的渐变_2-117);}.cls-118{fill:url(#未命名的渐变_2-118);}.cls-119{fill:url(#未命名的渐变_2-119);}.cls-120{fill:url(#未命名的渐变_2-120);}.cls-121{fill:url(#未命名的渐变_2-121);}.cls-122{fill:url(#未命名的渐变_2-122);}.cls-123{fill:url(#未命名的渐变_2-123);}.cls-124{fill:url(#未命名的渐变_2-124);}.cls-125{fill:url(#未命名的渐变_2-125);}.cls-126{fill:url(#未命名的渐变_2-126);}.cls-127{fill:url(#未命名的渐变_2-127);}.cls-128{fill:url(#未命名的渐变_2-128);}.cls-129{fill:url(#未命名的渐变_2-129);}.cls-130{fill:url(#未命名的渐变_2-130);}.cls-131{fill:url(#未命名的渐变_2-131);}.cls-132{fill:url(#未命名的渐变_2-132);}.cls-133{fill:url(#未命名的渐变_2-133);}.cls-134{fill:url(#未命名的渐变_2-134);}.cls-135{fill:url(#未命名的渐变_2-135);}.cls-136{fill:url(#未命名的渐变_2-136);}.cls-137{fill:url(#未命名的渐变_2-137);}.cls-138{fill:url(#未命名的渐变_2-138);}.cls-139{fill:url(#未命名的渐变_2-139);}.cls-140{fill:url(#未命名的渐变_2-140);}.cls-141{fill:url(#未命名的渐变_2-141);}.cls-142{fill:url(#未命名的渐变_2-142);}.cls-143{fill:url(#未命名的渐变_2-143);}.cls-144{fill:url(#未命名的渐变_2-144);}.cls-145{fill:url(#未命名的渐变_2-145);}.cls-146{fill:url(#未命名的渐变_2-146);}.cls-147{fill:url(#未命名的渐变_2-147);}.cls-148{fill:url(#未命名的渐变_2-148);}.cls-149{fill:url(#未命名的渐变_2-149);}.cls-150{fill:url(#未命名的渐变_2-150);}.cls-151{fill:url(#未命名的渐变_2-151);}.cls-152{fill:url(#未命名的渐变_2-152);}.cls-153{fill:url(#未命名的渐变_2-153);}.cls-154{fill:url(#未命名的渐变_2-154);}.cls-155{fill:url(#未命名的渐变_2-155);}.cls-156{fill:url(#未命名的渐变_2-156);}.cls-157{fill:url(#未命名的渐变_2-157);}.cls-158{fill:url(#未命名的渐变_2-158);}.cls-159{fill:url(#未命名的渐变_2-159);}.cls-160{fill:url(#未命名的渐变_2-160);}.cls-161{fill:url(#未命名的渐变_2-161);}.cls-162{fill:url(#未命名的渐变_2-162);}.cls-163{fill:url(#未命名的渐变_2-163);}.cls-164{fill:url(#未命名的渐变_2-164);}.cls-165{fill:url(#未命名的渐变_2-165);}.cls-166{fill:url(#未命名的渐变_2-166);}.cls-167{fill:url(#未命名的渐变_2-167);}.cls-168{fill:url(#未命名的渐变_2-168);}.cls-169{fill:url(#未命名的渐变_2-169);}.cls-170{fill:url(#未命名的渐变_2-170);}.cls-171{fill:url(#未命名的渐变_2-171);}.cls-172{fill:url(#未命名的渐变_2-172);}.cls-173{fill:url(#未命名的渐变_2-173);}.cls-174{fill:url(#未命名的渐变_2-174);}.cls-175{fill:url(#未命名的渐变_2-175);}.cls-176{fill:url(#未命名的渐变_2-176);}.cls-177{fill:url(#未命名的渐变_2-177);}.cls-178{fill:url(#未命名的渐变_2-178);}.cls-179{fill:url(#未命名的渐变_2-179);}.cls-180{fill:url(#未命名的渐变_2-180);}.cls-181{fill:url(#未命名的渐变_2-181);}.cls-182{fill:url(#未命名的渐变_2-182);}.cls-183{fill:url(#未命名的渐变_2-183);}.cls-184{fill:url(#未命名的渐变_2-184);}.cls-185{fill:url(#未命名的渐变_2-185);}.cls-186{fill:url(#未命名的渐变_2-186);}.cls-187{fill:url(#未命名的渐变_2-187);}.cls-188{fill:url(#未命名的渐变_2-188);}.cls-189{fill:url(#未命名的渐变_2-189);}.cls-190{fill:url(#未命名的渐变_2-190);}.cls-191{fill:url(#未命名的渐变_2-191);}.cls-192{fill:url(#未命名的渐变_2-192);}.cls-193{fill:url(#未命名的渐变_2-193);}.cls-194{fill:url(#未命名的渐变_2-194);}.cls-195{fill:url(#未命名的渐变_2-195);}.cls-196{fill:url(#未命名的渐变_2-196);}.cls-197{fill:url(#未命名的渐变_2-197);}.cls-198{fill:url(#未命名的渐变_2-198);}</style><linearGradient id="未命名的渐变_2" x1="6.7" y1="136.72" x2="6.52" y2="158.88" gradientUnits="userSpaceOnUse"><stop offset="0" stop-color="#7b5da5"/><stop offset="1" stop-color="#a9afd8"/></linearGradient><linearGradient id="未命名的渐变_2-2" x1="24.6" y1="136.86" x2="24.42" y2="159.03" xlink:href="#未命名的渐变_2"/><linearGradient id="未命名的渐变_2-3" x1="28.48" y1="136.9" x2="28.3" y2="159.06" xlink:href="#未命名的渐变_2"/><linearGradient id="未命名的渐变_2-4" x1="42.83" y1="137.01" x2="42.65" y2="159.18" xlink:href="#未命名的渐变_2"/><linearGradient id="未命名的渐变_2-5" x1="61.35" y1="137.17" x2="61.17" y2="159.34" xlink:href="#未命名的渐变_2"/><linearGradient id="未命名的渐变_2-6" x1="58.97" y1="137.15" x2="58.79" y2="159.32" xlink:href="#未命名的渐变_2"/><linearGradient id="未命名的渐变_2-7" x1="82.98" y1="137.35" x2="82.8" y2="159.51" xlink:href="#未命名的渐变_2"/><linearGradient id="未命名的渐变_2-8" x1="117.96" y1="137.63" x2="117.77" y2="159.8" xlink:href="#未命名的渐变_2"/><linearGradient id="未命名的渐变_2-9" x1="134.29" y1="137.77" x2="134.11" y2="159.94" xlink:href="#未命名的渐变_2"/><linearGradient id="未命名的渐变_2-10" x1="138.17" y1="137.8" x2="137.98" y2="159.97" xlink:href="#未命名的渐变_2"/><linearGradient id="未命名的渐变_2-11" x1="225.95" y1="138.53" x2="225.76" y2="160.7" xlink:href="#未命名的渐变_2"/><linearGradient id="未命名的渐变_2-12" x1="229.82" y1="138.56" x2="229.64" y2="160.73" xlink:href="#未命名的渐变_2"/><linearGradient id="未命名的渐变_2-13" x1="153.83" y1="137.93" x2="153.65" y2="160.1" xlink:href="#未命名的渐变_2"/><linearGradient id="未命名的渐变_2-14" x1="173.05" y1="138.09" x2="172.86" y2="160.26" xlink:href="#未命名的渐变_2"/><linearGradient id="未命名的渐变_2-15" x1="170.67" y1="138.07" x2="170.49" y2="160.24" xlink:href="#未命名的渐变_2"/><linearGradient id="未命名的渐变_2-16" x1="189.25" y1="138.22" x2="189.07" y2="160.39" xlink:href="#未命名的渐变_2"/><linearGradient id="未命名的渐变_2-17" x1="207.32" y1="138.37" x2="207.13" y2="160.54" xlink:href="#未命名的渐变_2"/><linearGradient id="未命名的渐变_2-18" x1="242.91" y1="138.67" x2="242.72" y2="160.84" xlink:href="#未命名的渐变_2"/><linearGradient id="未命名的渐变_2-19" x1="138.52" y1="57.01" x2="174.99" y2="57.01" xlink:href="#未命名的渐变_2"/><linearGradient id="未命名的渐变_2-20" x1="111.84" y1="11.78" x2="115.5" y2="135.27" xlink:href="#未命名的渐变_2"/><linearGradient id="未命名的渐变_2-21" x1="120.71" y1="11.52" x2="124.37" y2="135.01" xlink:href="#未命名的渐变_2"/><linearGradient id="未命名的渐变_2-22" x1="123.95" y1="11.42" x2="127.62" y2="134.91" xlink:href="#未命名的渐变_2"/><linearGradient id="未命名的渐变_2-23" x1="131.74" y1="11.19" x2="135.41" y2="134.68" xlink:href="#未命名的渐变_2"/><linearGradient id="未命名的渐变_2-24" x1="134.57" y1="11.11" x2="138.23" y2="134.59" xlink:href="#未命名的渐变_2"/><linearGradient id="未命名的渐变_2-25" x1="139.23" y1="10.97" x2="142.9" y2="134.46" xlink:href="#未命名的渐变_2"/><linearGradient id="未命名的渐变_2-26" x1="137.84" y1="11.01" x2="141.5" y2="134.5" xlink:href="#未命名的渐变_2"/><linearGradient id="未命名的渐变_2-27" x1="129.42" y1="11.26" x2="133.09" y2="134.75" xlink:href="#未命名的渐变_2"/><linearGradient id="未命名的渐变_2-28" x1="151.25" y1="10.61" x2="154.92" y2="134.1" xlink:href="#未命名的渐变_2"/><linearGradient id="未命名的渐变_2-29" x1="147.98" y1="10.71" x2="151.65" y2="134.2" xlink:href="#未命名的渐变_2"/><linearGradient id="未命名的渐变_2-30" x1="125.04" y1="11.39" x2="128.7" y2="134.88" xlink:href="#未命名的渐变_2"/><linearGradient id="未命名的渐变_2-31" x1="128.77" y1="11.28" x2="132.43" y2="134.77" xlink:href="#未命名的渐变_2"/><linearGradient id="未命名的渐变_2-32" x1="127.24" y1="11.32" x2="130.91" y2="134.81" xlink:href="#未命名的渐变_2"/><linearGradient id="未命名的渐变_2-33" x1="130.7" y1="11.22" x2="134.36" y2="134.71" xlink:href="#未命名的渐变_2"/><linearGradient id="未命名的渐变_2-34" x1="135.81" y1="11.07" x2="139.47" y2="134.56" xlink:href="#未命名的渐变_2"/><linearGradient id="未命名的渐变_2-35" x1="128.7" y1="11.28" x2="132.37" y2="134.77" xlink:href="#未命名的渐变_2"/><linearGradient id="未命名的渐变_2-36" x1="129.35" y1="11.26" x2="133.01" y2="134.75" xlink:href="#未命名的渐变_2"/><linearGradient id="未命名的渐变_2-37" x1="133.14" y1="11.15" x2="136.8" y2="134.64" xlink:href="#未命名的渐变_2"/><linearGradient id="未命名的渐变_2-38" x1="135.18" y1="11.09" x2="138.84" y2="134.58" xlink:href="#未命名的渐变_2"/><linearGradient id="未命名的渐变_2-39" x1="132.99" y1="11.15" x2="136.65" y2="134.64" xlink:href="#未命名的渐变_2"/><linearGradient id="未命名的渐变_2-40" x1="125.4" y1="11.38" x2="129.06" y2="134.87" xlink:href="#未命名的渐变_2"/><linearGradient id="未命名的渐变_2-41" x1="139.31" y1="10.97" x2="142.97" y2="134.45" xlink:href="#未命名的渐变_2"/><linearGradient id="未命名的渐变_2-42" x1="139.23" y1="10.97" x2="142.89" y2="134.46" xlink:href="#未命名的渐变_2"/><linearGradient id="未命名的渐变_2-43" x1="142.26" y1="10.88" x2="145.92" y2="134.37" xlink:href="#未命名的渐变_2"/><linearGradient id="未命名的渐变_2-44" x1="146.86" y1="10.74" x2="150.53" y2="134.23" xlink:href="#未命名的渐变_2"/><linearGradient id="未命名的渐变_2-45" x1="163.94" y1="10.24" x2="167.6" y2="133.72" xlink:href="#未命名的渐变_2"/><linearGradient id="未命名的渐变_2-46" x1="166.5" y1="10.16" x2="170.16" y2="133.65" xlink:href="#未命名的渐变_2"/><linearGradient id="未命名的渐变_2-47" x1="171.17" y1="10.02" x2="174.83" y2="133.51" xlink:href="#未命名的渐变_2"/><linearGradient id="未命名的渐变_2-48" x1="166.09" y1="10.17" x2="169.75" y2="133.66" xlink:href="#未命名的渐变_2"/><linearGradient id="未命名的渐变_2-49" x1="156.67" y1="10.45" x2="160.33" y2="133.94" xlink:href="#未命名的渐变_2"/><linearGradient id="未命名的渐变_2-50" x1="171.22" y1="10.02" x2="174.89" y2="133.51" xlink:href="#未命名的渐变_2"/><linearGradient id="未命名的渐变_2-51" x1="146.56" y1="10.75" x2="150.22" y2="134.24" xlink:href="#未命名的渐变_2"/><linearGradient id="未命名的渐变_2-52" x1="152.07" y1="10.59" x2="155.73" y2="134.08" xlink:href="#未命名的渐变_2"/><linearGradient id="未命名的渐变_2-53" x1="156.56" y1="10.45" x2="160.22" y2="133.94" xlink:href="#未命名的渐变_2"/><linearGradient id="未命名的渐变_2-54" x1="159.53" y1="10.37" x2="163.2" y2="133.85" xlink:href="#未命名的渐变_2"/><linearGradient id="未命名的渐变_2-55" x1="157.11" y1="10.44" x2="160.78" y2="133.93" xlink:href="#未命名的渐变_2"/><linearGradient id="未命名的渐变_2-56" x1="160.79" y1="10.33" x2="164.45" y2="133.82" xlink:href="#未命名的渐变_2"/><linearGradient id="未命名的渐变_2-57" x1="144.01" y1="10.83" x2="147.68" y2="134.31" xlink:href="#未命名的渐变_2"/><linearGradient id="未命名的渐变_2-58" x1="142.44" y1="10.87" x2="146.11" y2="134.36" xlink:href="#未命名的渐变_2"/><linearGradient id="未命名的渐变_2-59" x1="143.87" y1="10.83" x2="147.54" y2="134.32" xlink:href="#未命名的渐变_2"/><linearGradient id="未命名的渐变_2-60" x1="145.2" y1="10.79" x2="148.86" y2="134.28" xlink:href="#未命名的渐变_2"/><linearGradient id="未命名的渐变_2-61" x1="148.66" y1="10.69" x2="152.32" y2="134.18" xlink:href="#未命名的渐变_2"/><linearGradient id="未命名的渐变_2-62" x1="150.87" y1="10.62" x2="154.53" y2="134.11" xlink:href="#未命名的渐变_2"/><linearGradient id="未命名的渐变_2-63" x1="125.35" y1="11.38" x2="129.02" y2="134.87" xlink:href="#未命名的渐变_2"/><linearGradient id="未命名的渐变_2-64" x1="121.24" y1="11.5" x2="124.9" y2="134.99" xlink:href="#未命名的渐变_2"/><linearGradient id="未命名的渐变_2-65" x1="72.4" y1="12.95" x2="76.06" y2="136.44" xlink:href="#未命名的渐变_2"/><linearGradient id="未命名的渐变_2-66" x1="65.42" y1="13.16" x2="69.09" y2="136.65" xlink:href="#未命名的渐变_2"/><linearGradient id="未命名的渐变_2-67" x1="70.43" y1="13.01" x2="74.1" y2="136.5" xlink:href="#未命名的渐变_2"/><linearGradient id="未命名的渐变_2-68" x1="74.52" y1="12.89" x2="78.18" y2="136.38" xlink:href="#未命名的渐变_2"/><linearGradient id="未命名的渐变_2-69" x1="84.32" y1="12.6" x2="87.99" y2="136.09" xlink:href="#未命名的渐变_2"/><linearGradient id="未命名的渐变_2-70" x1="83.49" y1="12.62" x2="87.15" y2="136.11" xlink:href="#未命名的渐变_2"/><linearGradient id="未命名的渐变_2-71" x1="93.49" y1="12.33" x2="97.15" y2="135.81" xlink:href="#未命名的渐变_2"/><linearGradient id="未命名的渐变_2-72" x1="86.29" y1="12.54" x2="89.96" y2="136.03" xlink:href="#未命名的渐变_2"/><linearGradient id="未命名的渐变_2-73" x1="97.07" y1="12.22" x2="100.74" y2="135.71" xlink:href="#未命名的渐变_2"/><linearGradient id="未命名的渐变_2-74" x1="88.93" y1="12.46" x2="92.59" y2="135.95" xlink:href="#未命名的渐变_2"/><linearGradient id="未命名的渐变_2-75" x1="67.93" y1="13.09" x2="71.59" y2="136.57" xlink:href="#未命名的渐变_2"/><linearGradient id="未命名的渐变_2-76" x1="70.62" y1="13.01" x2="74.28" y2="136.49" xlink:href="#未命名的渐变_2"/><linearGradient id="未命名的渐变_2-77" x1="75.52" y1="12.86" x2="79.19" y2="136.35" xlink:href="#未命名的渐变_2"/><linearGradient id="未命名的渐变_2-78" x1="78.06" y1="12.78" x2="81.72" y2="136.27" xlink:href="#未命名的渐变_2"/><linearGradient id="未命名的渐变_2-79" x1="78.66" y1="12.77" x2="82.33" y2="136.25" xlink:href="#未命名的渐变_2"/><linearGradient id="未命名的渐变_2-80" x1="78.42" y1="12.77" x2="82.08" y2="136.26" xlink:href="#未命名的渐变_2"/><linearGradient id="未命名的渐变_2-81" x1="75.8" y1="12.85" x2="79.47" y2="136.34" xlink:href="#未命名的渐变_2"/><linearGradient id="未命名的渐变_2-82" x1="81.12" y1="12.69" x2="84.79" y2="136.18" xlink:href="#未命名的渐变_2"/><linearGradient id="未命名的渐变_2-83" x1="89.43" y1="12.45" x2="93.09" y2="135.93" xlink:href="#未命名的渐变_2"/><linearGradient id="未命名的渐变_2-84" x1="90.55" y1="12.41" x2="94.21" y2="135.9" xlink:href="#未命名的渐变_2"/><linearGradient id="未命名的渐变_2-85" x1="85.41" y1="12.57" x2="89.07" y2="136.05" xlink:href="#未命名的渐变_2"/><linearGradient id="未命名的渐变_2-86" x1="90.48" y1="12.42" x2="94.14" y2="135.9" xlink:href="#未命名的渐变_2"/><linearGradient id="未命名的渐变_2-87" x1="88.33" y1="12.48" x2="92" y2="135.97" xlink:href="#未命名的渐变_2"/><linearGradient id="未命名的渐变_2-88" x1="88.9" y1="12.46" x2="92.56" y2="135.95" xlink:href="#未命名的渐变_2"/><linearGradient id="未命名的渐变_2-89" x1="92.75" y1="12.35" x2="96.42" y2="135.84" xlink:href="#未命名的渐变_2"/><linearGradient id="未命名的渐变_2-90" x1="92.72" y1="12.35" x2="96.38" y2="135.84" xlink:href="#未命名的渐变_2"/><linearGradient id="未命名的渐变_2-91" x1="96.81" y1="12.23" x2="100.48" y2="135.71" xlink:href="#未命名的渐变_2"/><linearGradient id="未命名的渐变_2-92" x1="100.09" y1="12.13" x2="103.75" y2="135.62" xlink:href="#未命名的渐变_2"/><linearGradient id="未命名的渐变_2-93" x1="106.54" y1="11.94" x2="110.2" y2="135.43" xlink:href="#未命名的渐变_2"/><linearGradient id="未命名的渐变_2-94" x1="103.21" y1="12.04" x2="106.88" y2="135.53" xlink:href="#未命名的渐变_2"/><linearGradient id="未命名的渐变_2-95" x1="102.49" y1="12.06" x2="106.15" y2="135.55" xlink:href="#未命名的渐变_2"/><linearGradient id="未命名的渐变_2-96" x1="86.76" y1="12.53" x2="90.43" y2="136.01" xlink:href="#未命名的渐变_2"/><linearGradient id="未命名的渐变_2-97" x1="82.41" y1="12.66" x2="86.08" y2="136.14" xlink:href="#未命名的渐变_2"/><linearGradient id="未命名的渐变_2-98" x1="92.44" y1="12.36" x2="96.1" y2="135.84" xlink:href="#未命名的渐变_2"/><linearGradient id="未命名的渐变_2-99" x1="96.38" y1="12.24" x2="100.05" y2="135.73" xlink:href="#未命名的渐变_2"/><linearGradient id="未命名的渐变_2-100" x1="98.83" y1="12.17" x2="102.49" y2="135.66" xlink:href="#未命名的渐变_2"/><linearGradient id="未命名的渐变_2-101" x1="100.97" y1="12.1" x2="104.64" y2="135.59" xlink:href="#未命名的渐变_2"/><linearGradient id="未命名的渐变_2-102" x1="78.31" y1="12.78" x2="81.97" y2="136.26" xlink:href="#未命名的渐变_2"/><linearGradient id="未命名的渐变_2-103" x1="83.75" y1="12.62" x2="87.41" y2="136.1" xlink:href="#未命名的渐变_2"/><linearGradient id="未命名的渐变_2-104" x1="74.73" y1="12.88" x2="78.39" y2="136.37" xlink:href="#未命名的渐变_2"/><linearGradient id="未命名的渐变_2-105" x1="59.05" y1="13.35" x2="62.71" y2="136.84" xlink:href="#未命名的渐变_2"/><linearGradient id="未命名的渐变_2-106" x1="60.57" y1="13.3" x2="64.24" y2="136.79" xlink:href="#未命名的渐变_2"/><linearGradient id="未命名的渐变_2-107" x1="56.35" y1="13.43" x2="60.01" y2="136.92" xlink:href="#未命名的渐变_2"/><linearGradient id="未命名的渐变_2-108" x1="63.09" y1="13.23" x2="66.75" y2="136.72" xlink:href="#未命名的渐变_2"/><linearGradient id="未命名的渐变_2-109" x1="57.3" y1="13.4" x2="60.96" y2="136.89" xlink:href="#未命名的渐变_2"/><linearGradient id="未命名的渐变_2-110" x1="67.7" y1="13.09" x2="71.36" y2="136.58" xlink:href="#未命名的渐变_2"/><linearGradient id="未命名的渐变_2-111" x1="70.51" y1="13.01" x2="74.18" y2="136.5" xlink:href="#未命名的渐变_2"/><linearGradient id="未命名的渐变_2-112" x1="58" y1="13.38" x2="61.67" y2="136.87" xlink:href="#未命名的渐变_2"/><linearGradient id="未命名的渐变_2-113" x1="53.71" y1="13.51" x2="57.37" y2="136.99" xlink:href="#未命名的渐变_2"/><linearGradient id="未命名的渐变_2-114" x1="56.93" y1="13.41" x2="60.59" y2="136.9" xlink:href="#未命名的渐变_2"/><linearGradient id="未命名的渐变_2-115" x1="55.63" y1="13.45" x2="59.3" y2="136.94" xlink:href="#未命名的渐变_2"/><linearGradient id="未命名的渐变_2-116" x1="62.13" y1="13.26" x2="65.8" y2="136.74" xlink:href="#未命名的渐变_2"/><linearGradient id="未命名的渐变_2-117" x1="60.98" y1="13.29" x2="64.64" y2="136.78" xlink:href="#未命名的渐变_2"/><linearGradient id="未命名的渐变_2-118" x1="56.14" y1="13.43" x2="59.81" y2="136.92" xlink:href="#未命名的渐变_2"/><linearGradient id="未命名的渐变_2-119" x1="53.14" y1="13.52" x2="56.8" y2="137.01" xlink:href="#未命名的渐变_2"/><linearGradient id="未命名的渐变_2-120" x1="53.82" y1="13.5" x2="57.48" y2="136.99" xlink:href="#未命名的渐变_2"/><linearGradient id="未命名的渐变_2-121" x1="61.42" y1="13.28" x2="65.09" y2="136.77" xlink:href="#未命名的渐变_2"/><linearGradient id="未命名的渐变_2-122" x1="67.51" y1="13.1" x2="71.17" y2="136.58" xlink:href="#未命名的渐变_2"/><linearGradient id="未命名的渐变_2-123" x1="70.95" y1="13" x2="74.61" y2="136.48" xlink:href="#未命名的渐变_2"/><linearGradient id="未命名的渐变_2-124" x1="73.92" y1="12.91" x2="77.58" y2="136.39" xlink:href="#未命名的渐变_2"/><linearGradient id="未命名的渐变_2-125" x1="64.16" y1="13.2" x2="67.82" y2="136.68" xlink:href="#未命名的渐变_2"/><linearGradient id="未命名的渐变_2-126" x1="62.11" y1="13.26" x2="65.78" y2="136.74" xlink:href="#未命名的渐变_2"/><linearGradient id="未命名的渐变_2-127" x1="59.45" y1="13.34" x2="63.11" y2="136.82" xlink:href="#未命名的渐变_2"/><linearGradient id="未命名的渐变_2-128" x1="55.14" y1="13.46" x2="58.8" y2="136.95" xlink:href="#未命名的渐变_2"/><linearGradient id="未命名的渐变_2-129" x1="58.68" y1="13.36" x2="62.34" y2="136.85" xlink:href="#未命名的渐变_2"/><linearGradient id="未命名的渐变_2-130" x1="53.19" y1="13.52" x2="56.86" y2="137.01" xlink:href="#未命名的渐变_2"/><linearGradient id="未命名的渐变_2-131" x1="55.36" y1="13.46" x2="59.02" y2="136.95" xlink:href="#未命名的渐变_2"/><linearGradient id="未命名的渐变_2-132" x1="55.84" y1="13.44" x2="59.51" y2="136.93" xlink:href="#未命名的渐变_2"/><linearGradient id="未命名的渐变_2-133" x1="59.05" y1="13.35" x2="62.72" y2="136.84" xlink:href="#未命名的渐变_2"/><linearGradient id="未命名的渐变_2-134" x1="54.4" y1="13.49" x2="58.06" y2="136.97" xlink:href="#未命名的渐变_2"/><linearGradient id="未命名的渐变_2-135" x1="55.46" y1="13.45" x2="59.13" y2="136.94" xlink:href="#未命名的渐变_2"/><linearGradient id="未命名的渐变_2-136" x1="53.42" y1="13.52" x2="57.09" y2="137" xlink:href="#未命名的渐变_2"/><linearGradient id="未命名的渐变_2-137" x1="61.25" y1="13.28" x2="64.91" y2="136.77" xlink:href="#未命名的渐变_2"/><linearGradient id="未命名的渐变_2-138" x1="63.76" y1="13.21" x2="67.43" y2="136.7" xlink:href="#未命名的渐变_2"/><linearGradient id="未命名的渐变_2-139" x1="62.51" y1="13.25" x2="66.17" y2="136.73" xlink:href="#未命名的渐变_2"/><linearGradient id="未命名的渐变_2-140" x1="61.67" y1="13.27" x2="65.34" y2="136.76" xlink:href="#未命名的渐变_2"/><linearGradient id="未命名的渐变_2-141" x1="66.91" y1="13.12" x2="70.57" y2="136.6" xlink:href="#未命名的渐变_2"/><linearGradient id="未命名的渐变_2-142" x1="76.69" y1="12.82" x2="80.36" y2="136.31" xlink:href="#未命名的渐变_2"/><linearGradient id="未命名的渐变_2-143" x1="115.31" y1="11.68" x2="118.98" y2="135.17" xlink:href="#未命名的渐变_2"/><linearGradient id="未命名的渐变_2-144" x1="105.83" y1="11.96" x2="109.5" y2="135.45" xlink:href="#未命名的渐变_2"/><linearGradient id="未命名的渐变_2-145" x1="102.75" y1="12.05" x2="106.42" y2="135.54" xlink:href="#未命名的渐变_2"/><linearGradient id="未命名的渐变_2-146" x1="94.97" y1="12.28" x2="98.63" y2="135.77" xlink:href="#未命名的渐变_2"/><linearGradient id="未命名的渐变_2-147" x1="92.55" y1="12.35" x2="96.21" y2="135.84" xlink:href="#未命名的渐变_2"/><linearGradient id="未命名的渐变_2-148" x1="87.73" y1="12.5" x2="91.39" y2="135.98" xlink:href="#未命名的渐变_2"/><linearGradient id="未命名的渐变_2-149" x1="88.66" y1="12.47" x2="92.32" y2="135.96" xlink:href="#未命名的渐变_2"/><linearGradient id="未命名的渐变_2-150" x1="97.91" y1="12.2" x2="101.57" y2="135.68" xlink:href="#未命名的渐变_2"/><linearGradient id="未命名的渐变_2-151" x1="76.06" y1="12.84" x2="79.72" y2="136.33" xlink:href="#未命名的渐变_2"/><linearGradient id="未命名的渐变_2-152" x1="79.33" y1="12.75" x2="82.99" y2="136.23" xlink:href="#未命名的渐变_2"/><linearGradient id="未命名的渐变_2-153" x1="101.52" y1="12.09" x2="105.18" y2="135.58" xlink:href="#未命名的渐变_2"/><linearGradient id="未命名的渐变_2-154" x1="97.83" y1="12.2" x2="101.49" y2="135.68" xlink:href="#未命名的渐变_2"/><linearGradient id="未命名的渐变_2-155" x1="99.63" y1="12.14" x2="103.29" y2="135.63" xlink:href="#未命名的渐变_2"/><linearGradient id="未命名的渐变_2-156" x1="96.21" y1="12.25" x2="99.87" y2="135.73" xlink:href="#未命名的渐变_2"/><linearGradient id="未命名的渐变_2-157" x1="91" y1="12.4" x2="94.66" y2="135.89" xlink:href="#未命名的渐变_2"/><linearGradient id="未命名的渐变_2-158" x1="88.33" y1="12.48" x2="92" y2="135.97" xlink:href="#未命名的渐变_2"/><linearGradient id="未命名的渐变_2-159" x1="91.36" y1="12.39" x2="95.03" y2="135.88" xlink:href="#未命名的渐变_2"/><linearGradient id="未命名的渐变_2-160" x1="93.85" y1="12.32" x2="97.52" y2="135.8" xlink:href="#未命名的渐变_2"/><linearGradient id="未命名的渐变_2-161" x1="92.16" y1="12.37" x2="95.83" y2="135.85" xlink:href="#未命名的渐变_2"/><linearGradient id="未命名的渐变_2-162" x1="94.46" y1="12.3" x2="98.12" y2="135.78" xlink:href="#未命名的渐变_2"/><linearGradient id="未命名的渐变_2-163" x1="101.99" y1="12.07" x2="105.66" y2="135.56" xlink:href="#未命名的渐变_2"/><linearGradient id="未命名的渐变_2-164" x1="87.98" y1="12.49" x2="91.65" y2="135.98" xlink:href="#未命名的渐变_2"/><linearGradient id="未命名的渐变_2-165" x1="87.96" y1="12.49" x2="91.62" y2="135.98" xlink:href="#未命名的渐变_2"/><linearGradient id="未命名的渐变_2-166" x1="84.88" y1="12.58" x2="88.55" y2="136.07" xlink:href="#未命名的渐变_2"/><linearGradient id="未命名的渐变_2-167" x1="77.22" y1="12.81" x2="80.89" y2="136.3" xlink:href="#未命名的渐变_2"/><linearGradient id="未命名的渐变_2-168" x1="80.66" y1="12.71" x2="84.33" y2="136.19" xlink:href="#未命名的渐变_2"/><linearGradient id="未命名的渐变_2-169" x1="71.66" y1="12.97" x2="75.32" y2="136.46" xlink:href="#未命名的渐变_2"/><linearGradient id="未命名的渐变_2-170" x1="70.77" y1="13" x2="74.43" y2="136.49" xlink:href="#未命名的渐变_2"/><linearGradient id="未命名的渐变_2-171" x1="65.37" y1="13.16" x2="69.03" y2="136.65" xlink:href="#未命名的渐变_2"/><linearGradient id="未命名的渐变_2-172" x1="71.49" y1="12.98" x2="75.15" y2="136.47" xlink:href="#未命名的渐变_2"/><linearGradient id="未命名的渐变_2-173" x1="67.66" y1="13.09" x2="71.33" y2="136.58" xlink:href="#未命名的渐变_2"/><linearGradient id="未命名的渐变_2-174" x1="82.98" y1="12.64" x2="86.65" y2="136.13" xlink:href="#未命名的渐变_2"/><linearGradient id="未命名的渐变_2-175" x1="84.97" y1="12.58" x2="88.64" y2="136.07" xlink:href="#未命名的渐变_2"/><linearGradient id="未命名的渐变_2-176" x1="83.4" y1="12.63" x2="87.06" y2="136.11" xlink:href="#未命名的渐变_2"/><linearGradient id="未命名的渐变_2-177" x1="82.23" y1="12.66" x2="85.9" y2="136.15" xlink:href="#未命名的渐变_2"/><linearGradient id="未命名的渐变_2-178" x1="78.81" y1="12.76" x2="82.47" y2="136.25" xlink:href="#未命名的渐变_2"/><linearGradient id="未命名的渐变_2-179" x1="76.05" y1="12.84" x2="79.71" y2="136.33" xlink:href="#未命名的渐变_2"/><linearGradient id="未命名的渐变_2-180" x1="101.7" y1="12.08" x2="105.36" y2="135.57" xlink:href="#未命名的渐变_2"/><linearGradient id="未命名的渐变_2-181" x1="106.17" y1="11.95" x2="109.84" y2="135.44" xlink:href="#未命名的渐变_2"/><linearGradient id="未命名的渐变_2-182" x1="127.43" y1="11.32" x2="131.09" y2="134.81" xlink:href="#未命名的渐变_2"/><linearGradient id="未命名的渐变_2-183" x1="172.16" y1="9.99" x2="175.82" y2="133.48" xlink:href="#未命名的渐变_2"/><linearGradient id="未命名的渐变_2-184" x1="172.43" y1="9.98" x2="176.09" y2="133.47" xlink:href="#未命名的渐变_2"/><linearGradient id="未命名的渐变_2-185" x1="165.37" y1="10.19" x2="169.04" y2="133.68" xlink:href="#未命名的渐变_2"/><linearGradient id="未命名的渐变_2-186" x1="165.5" y1="10.19" x2="169.17" y2="133.68" xlink:href="#未命名的渐变_2"/><linearGradient id="未命名的渐变_2-187" x1="162.14" y1="10.29" x2="165.8" y2="133.78" xlink:href="#未命名的渐变_2"/><linearGradient id="未命名的渐变_2-188" x1="162.27" y1="10.29" x2="165.93" y2="133.77" xlink:href="#未命名的渐变_2"/><linearGradient id="未命名的渐变_2-189" x1="152.95" y1="10.56" x2="156.62" y2="134.05" xlink:href="#未命名的渐变_2"/><linearGradient id="未命名的渐变_2-190" x1="153.08" y1="10.56" x2="156.75" y2="134.05" xlink:href="#未命名的渐变_2"/><linearGradient id="未命名的渐变_2-191" x1="144.07" y1="10.83" x2="147.73" y2="134.31" xlink:href="#未命名的渐变_2"/><linearGradient id="未命名的渐变_2-192" x1="144.2" y1="10.82" x2="147.86" y2="134.31" xlink:href="#未命名的渐变_2"/><linearGradient id="未命名的渐变_2-193" x1="181.66" y1="9.71" x2="185.33" y2="133.2" xlink:href="#未命名的渐变_2"/><linearGradient id="未命名的渐变_2-194" x1="181.8" y1="9.71" x2="185.46" y2="133.19" xlink:href="#未命名的渐变_2"/><linearGradient id="未命名的渐变_2-195" x1="188.67" y1="9.5" x2="192.34" y2="132.99" xlink:href="#未命名的渐变_2"/><linearGradient id="未命名的渐变_2-196" x1="188.76" y1="9.5" x2="192.42" y2="132.99" xlink:href="#未命名的渐变_2"/><linearGradient id="未命名的渐变_2-197" x1="190.7" y1="9.44" x2="194.36" y2="132.93" xlink:href="#未命名的渐变_2"/><linearGradient id="未命名的渐变_2-198" x1="190.78" y1="9.44" x2="194.45" y2="132.93" xlink:href="#未命名的渐变_2"/></defs><g id="图层_2" data-name="图层 2"><g id="图层_1_复制" data-name="图层 1_复制"><path class="cls-1" d="M0,134a29.78,29.78,0,0,1,2.77,13.42c-.27,7.56-1.25,9.46-1.25,9.46s12.56-3,11.8-11S3.59,133.57,0,134Z"/><path class="cls-2" d="M18.6,135.52s-1.74.18-1.93,2.52,0,17.4,1.56,18.36,3.57-.54,4.17-2.61.14-3,.32-3.48.69-.18.87.64,2.33,5.23,6.46,5.45c0,0,2,.37,1.42-1.28s-4.54-7.1-3.3-9.52a5.42,5.42,0,0,1,2.47-1.88c1.33-.32,2-2.38,1.88-3.71s-5.27-2.66-5.91.41c0,0-2.84,2.7-5.6,2.9a.53.53,0,0,1-.59-.53l-.07-4.1a.59.59,0,0,1,.45-.6,6.86,6.86,0,0,1,4.12,0s4.81-1.65,4.72-2.38S18.6,135.52,18.6,135.52Z"/><path class="cls-3" d="M24.41,138s2.71,1,1.8,2.8l6.31-.93S30.09,135,29,135.61,24.41,138,24.41,138Z"/><path class="cls-4" d="M40.66,137.74l7.84-.05a.63.63,0,0,0,.64-.62A2.14,2.14,0,0,0,48,134.85c-1.25-.53-8.82-.21-11.53-.08a1,1,0,0,0-1,1c-.1,3.39-.33,14.88,1.21,19.63a2,2,0,0,0,1.62,1.38c1.7.29,5.28.45,11-1.39a.92.92,0,0,0,.63-.78c.11-1.2.29-3.86-.25-4.14-.31-.16-8.3,1.28-8.46,0,0-.24-.09-3.51.25-3.57s5.46.18,6.23-2a2.57,2.57,0,0,0-.22-1.46c-.33-.43-7,.43-7.84-1.93a4.44,4.44,0,0,1,.06-3.25A1,1,0,0,1,40.66,137.74Z"/><path class="cls-5" d="M53.17,155.15a1.19,1.19,0,0,0,.94,1.33,3.43,3.43,0,0,0,3.24-.85c1.78-1.79,2.88-6.74,3.8-5.23s1.23,4.58,5.17,5.18c0,0,2.7.41,2.8.14.36-1,0-4.49-2-11.68s-5.22-8.8-6.73-8.29-3.25,2.2-5.45,9.57c0,0,3.63,1.86,4.09.86s-.15-4.48.4-4.89,2.75-.64,3,.5.23,3.94.73,4.17-4.12,1-5.26,2.89-4.45,4.21-4.45,4.21Z"/><path class="cls-6" d="M62.14,146.09a3.28,3.28,0,0,1-.69.1,6.9,6.9,0,0,1-2.29-.26c-.27-.24-.41-1.69-.41-1.69l-3.83,1.08s-1.7,6.69-1.54,8.92l8.24-5.44,2.75-2.87-1.24-.09Z"/><path class="cls-7" d="M72.85,155.16a1.44,1.44,0,0,0,1.38,1.34,4,4,0,0,0,2.08-.28c.59-.55,2.66-8.84,3.07-8.84s2.65,2.93,3.75,2.7,1.79-2.65,2.48-2.7,1.33,2.7,1.28,4.67,0,4.42,3.07,4.68c2.24.18,2.15-.46,2.15-1.61s1.7-8.79.37-14.75c0,0-.28-2.61-.51-3.57s-2.58-1.38-3.06-1.28c-1.1.23-2.94,7.24-5.41,7.19-.78,0-1.65-7.47-6.09-7.56C73.42,135.07,72.49,150.23,72.85,155.16Z"/><path class="cls-8" d="M124.68,136.2s-7.77,4.57-7.5,12a12.56,12.56,0,0,0,6,10.43s-12.73-3-12-10.8S121.05,135.83,124.68,136.2Z"/><path class="cls-9" d="M128.28,136.39s-1.74.18-1.92,2.52,0,17.4,1.55,18.37,3.58-.55,4.17-2.62.14-3,.32-3.48.69-.18.87.64,2.34,5.23,6.46,5.46c0,0,2,.36,1.42-1.29s-4.53-7.1-3.3-9.52a5.47,5.47,0,0,1,2.48-1.88c1.33-.32,2-2.38,1.88-3.71s-5.27-2.66-5.91.41c0,0-2.84,2.7-5.61,2.9a.54.54,0,0,1-.59-.53l-.07-4.1a.61.61,0,0,1,.45-.6,6.86,6.86,0,0,1,4.12,0s4.81-1.65,4.72-2.38S128.28,136.39,128.28,136.39Z"/><path class="cls-10" d="M134.1,138.82s2.7,1,1.8,2.8l6.31-.93s-2.43-4.81-3.53-4.21S134.1,138.82,134.1,138.82Z"/><path class="cls-11" d="M220,135.7s-1.74.18-1.92,2.52,0,17.41,1.55,18.37,3.58-.55,4.17-2.61.14-3,.32-3.48.69-.19.87.64,2.34,5.22,6.46,5.45c0,0,2,.36,1.42-1.28s-4.53-7.1-3.3-9.53A5.47,5.47,0,0,1,232,143.9c1.32-.32,2-2.38,1.87-3.71s-5.26-2.66-5.9.41c0,0-2.84,2.7-5.61,2.91a.55.55,0,0,1-.59-.53l-.07-4.11a.6.6,0,0,1,.45-.6,6.94,6.94,0,0,1,4.12,0s4.81-1.65,4.72-2.38S220,135.7,220,135.7Z"/><path class="cls-12" d="M225.77,138.13s2.7,1,1.79,2.8l6.31-.92s-2.42-4.81-3.52-4.22S225.77,138.13,225.77,138.13Z"/><path class="cls-13" d="M151.66,138.9l7.84-.05a.64.64,0,0,0,.64-.62A2.14,2.14,0,0,0,159,136c-1.25-.53-8.82-.21-11.53-.08a1,1,0,0,0-1,1c-.11,3.39-.33,14.88,1.2,19.63a2,2,0,0,0,1.63,1.38c1.7.29,5.28.46,11-1.39a.9.9,0,0,0,.62-.77c.12-1.21.3-3.87-.24-4.15-.31-.16-8.3,1.28-8.46,0,0-.24-.09-3.51.25-3.57s5.46.18,6.23-2a2.57,2.57,0,0,0-.22-1.46c-.33-.43-7,.43-7.85-1.92a4.5,4.5,0,0,1,.07-3.26A1,1,0,0,1,151.66,138.9Z"/><path class="cls-14" d="M164.87,155.79a1.19,1.19,0,0,0,.94,1.33,3.43,3.43,0,0,0,3.24-.85c1.78-1.79,2.88-6.74,3.8-5.22s1.24,4.58,5.17,5.17c0,0,2.7.41,2.8.14.36-1,0-4.49-2-11.68s-5.22-8.8-6.73-8.29-3.25,2.2-5.45,9.57c0,0,3.63,1.86,4.09.86s-.15-4.48.4-4.89,2.75-.64,3,.5.23,3.94.73,4.17-4.12,1-5.26,2.89-4.45,4.21-4.45,4.21Z"/><path class="cls-15" d="M173.84,146.73a3.28,3.28,0,0,1-.69.1,6.9,6.9,0,0,1-2.29-.26c-.27-.24-.41-1.69-.41-1.69L166.62,146s-1.7,6.69-1.54,8.92l8.24-5.44,2.75-2.87-1.24-.09Z"/><path class="cls-16" d="M182.05,138.77a19.93,19.93,0,0,1,3.64.23.78.78,0,0,0,.94-.72c.08-1.21.29-3,.87-3.34.9-.56,4.14-1.29,4.59.73s-.34,2.91.67,2.91,3.13-1.23,4.25.22.11,3.13-.81,3.81c-.27.19-4.33-.31-4.75.53s-1.32,11.19.92,9.84,4.08-.86,3.75.81-6.24,6-9.32,1.57c-1.61-2.32-1.42-8.31-1.25-11a1.11,1.11,0,0,0-1.15-1.19c-1,0-2.31,0-2.77-.5A2.69,2.69,0,0,1,182.05,138.77Z"/><path class="cls-17" d="M207.25,136.6c-4.34,0-7.85,4.58-7.85,10.24s3.51,10.24,7.85,10.24,7.84-4.59,7.84-10.24S211.58,136.6,207.25,136.6Zm.27,16.79c-1.65,0-3-2.66-3-5.93s1.34-5.93,3-5.93,3,2.66,3,5.93S209.17,153.39,207.52,153.39Z"/><path class="cls-18" d="M240.2,135.65a5.16,5.16,0,0,1,5.51-1.41c1.18.41,2.27,1.19,2.18,2.65-.18,3.12-3.21.09-5,3s2.34,4.48,5.13,7.78c3.94,4.67-.91,9.35-7.51,9s-4.13-4.48-2.11-4.76c1.53-.22,4.71.26,4.86-2.2.19-3.27-6.69-7.79-4.67-11.64A11.58,11.58,0,0,1,240.2,135.65Z"/><path class="cls-19" d="M138.88,88.25s3.48-10.81,1.46-15.21,1.29-13.19,14.29-18.69c13.32-5.62,24.55-8.79,18.14-28.58"/><path class="cls-20" d="M112.36,2.06l-13,22.43a.79.79,0,0,0,.67,1.18l18.51.26a.65.65,0,0,0,.54-1,2.18,2.18,0,0,1,0-2.81.77.77,0,0,0-.3-1.2c-.6-.25-.89-.56.67-.73h3.61a1.74,1.74,0,0,0,1.75-1.81h0a2,2,0,0,0-.93-1.6,2.91,2.91,0,0,1-1.38-3.18,2.79,2.79,0,0,1,1.39-1.73,1.46,1.46,0,0,0,.85-1.24v-.25a1.34,1.34,0,0,0-1.28-1.41,2.64,2.64,0,0,1-2.81-2.73,1.22,1.22,0,0,0-.89-1.07c-1.14-.32-2.91-1.16-2.44-3.28a.94.94,0,0,0-.92-1.13l-1.66,0A2.75,2.75,0,0,0,112.36,2.06Z"/><circle class="cls-21" cx="120.43" cy="2.2" r="2.2"/><circle class="cls-22" cx="123.79" cy="5.99" r="2.2"/><circle class="cls-23" cx="131.58" cy="5.71" r="2.2"/><circle class="cls-24" cx="134.69" cy="15.42" r="2.2"/><circle class="cls-25" cx="139.24" cy="11.39" r="2.2"/><circle class="cls-26" cx="138.24" cy="24.4" r="2.2"/><circle class="cls-27" cx="129.72" cy="21.1" r="2.2"/><circle class="cls-28" cx="151.52" cy="19.54" r="2.2"/><circle class="cls-29" cx="148.07" cy="13.53" r="2.2"/><circle class="cls-30" cx="124.77" cy="2.32" r="0.96"/><circle class="cls-31" cx="128.53" cy="3.05" r="0.96"/><circle class="cls-32" cx="127.2" cy="9.83" r="0.96"/><circle class="cls-33" cx="130.68" cy="10.57" r="0.96"/><circle class="cls-34" cx="135.72" cy="7.94" r="0.96"/><circle class="cls-35" cx="129.18" cy="27.48" r="0.96"/><circle class="cls-36" cx="129.46" cy="14.87" r="0.96"/><circle class="cls-37" cx="133.18" cy="12.58" r="0.96"/><circle class="cls-38" cx="135.47" cy="21.04" r="0.96"/><circle class="cls-39" cx="133.37" cy="23.79" r="0.96"/><circle class="cls-40" cx="125.73" cy="22.69" r="0.96"/><circle class="cls-41" cx="139.56" cy="19.57" r="0.96"/><circle class="cls-42" cx="139.41" cy="17.1" r="0.96"/><circle class="cls-43" cx="142.4" cy="15.79" r="0.96"/><circle class="cls-44" cx="146.82" cy="9.22" r="0.96"/><circle class="cls-45" cx="164.34" cy="23.85" r="0.96"/><circle class="cls-46" cx="166.73" cy="17.83" r="0.96"/><circle class="cls-47" cx="171.86" cy="33.28" r="0.96"/><circle class="cls-48" cx="166.6" cy="27.54" r="0.96"/><circle class="cls-49" cx="156.74" cy="12.83" r="0.96"/><circle class="cls-50" cx="171.55" cy="21.01" r="0.96"/><circle class="cls-51" cx="146.76" cy="17.48" r="0.96"/><circle class="cls-52" cx="152.07" cy="10.63" r="0.96"/><circle class="cls-53" cx="156.83" cy="19.63" r="0.96"/><circle class="cls-54" cx="159.9" cy="22.8" r="0.96"/><circle class="cls-55" cx="157.61" cy="27.24" r="0.96"/><circle class="cls-56" cx="161.32" cy="28.29" r="0.96"/><circle class="cls-57" cx="144.05" cy="12.12" r="0.96"/><circle class="cls-58" cx="142.34" cy="7.54" r="0.96"/><circle class="cls-59" cx="144.11" cy="18.9" r="0.96"/><circle class="cls-60" cx="145.55" cy="22.69" r="0.96"/><circle class="cls-61" cx="149.03" cy="23.31" r="0.96"/><circle class="cls-62" cx="151.34" cy="26.56" r="0.96"/><circle class="cls-63" cx="125.44" cy="14.35" r="2.2"/><circle class="cls-64" cx="121.59" cy="23.45" r="2.2"/><path class="cls-65" d="M61.44,33.85,73.6,56.76a.79.79,0,0,0,1.36.05L85,41.25a.65.65,0,0,0-.59-1A2.18,2.18,0,0,1,82,38.74a.78.78,0,0,0-1.18-.38c-.53.37-.95.46-.27-1l1.92-3.07a1.75,1.75,0,0,0-.62-2.44h0A2,2,0,0,0,80,31.84a2.91,2.91,0,0,1-3.43-.51,2.82,2.82,0,0,1-.73-2.09,1.45,1.45,0,0,0-.6-1.38L75,27.71a1.34,1.34,0,0,0-1.87.35,2.63,2.63,0,0,1-3.8.94,1.2,1.2,0,0,0-1.38.19c-.87.79-2.53,1.85-4.08.33a1,1,0,0,0-1.45.18l-.89,1.39A2.75,2.75,0,0,0,61.44,33.85Z"/><circle class="cls-66" cx="65.84" cy="27.08" r="2.2"/><circle class="cls-67" cx="70.83" cy="26.23" r="2.2"/><circle class="cls-68" cx="74.71" cy="19.48" r="2.2"/><circle class="cls-69" cx="84.6" cy="21.98" r="2.2"/><circle class="cls-70" cx="83.59" cy="15.98" r="2.2"/><circle class="cls-71" cx="93.79" cy="22.44" r="2.2"/><circle class="cls-72" cx="86.79" cy="29.21" r="2.2"/><circle class="cls-73" cx="97" cy="9.88" r="2.2"/><circle class="cls-74" cx="88.83" cy="9.25" r="2.2"/><circle class="cls-75" cx="68.23" cy="23.47" r="0.96"/><circle class="cls-76" cx="70.84" cy="20.67" r="0.96"/><circle class="cls-77" cx="75.89" cy="25.38" r="0.96"/><circle class="cls-78" cx="78.36" cy="22.82" r="0.96"/><circle class="cls-79" cx="78.79" cy="17.15" r="0.96"/><circle class="cls-80" cx="78.45" cy="13.95" r="0.96"/><circle class="cls-81" cx="75.9" cy="16.03" r="0.96"/><circle class="cls-82" cx="81.39" cy="21.76" r="0.96"/><circle class="cls-83" cx="89.78" cy="24.29" r="0.96"/><circle class="cls-84" cx="91" cy="27.53" r="0.96"/><circle class="cls-85" cx="86.03" cy="33.43" r="0.96"/><circle class="cls-86" cx="90.7" cy="20.04" r="0.96"/><circle class="cls-87" cx="88.52" cy="18.86" r="0.96"/><circle class="cls-88" cx="88.99" cy="15.63" r="0.96"/><circle class="cls-89" cx="92.65" cy="8.9" r="0.96"/><circle class="cls-90" cx="92.73" cy="12.83" r="0.96"/><circle class="cls-91" cx="96.59" cy="4.68" r="0.96"/><circle class="cls-92" cx="99.89" cy="5.42" r="0.96"/><circle class="cls-93" cx="106.26" cy="2.69" r="0.96"/><circle class="cls-94" cx="103.09" cy="7.93" r="0.96"/><circle class="cls-95" cx="102.22" cy="3.14" r="0.96"/><circle class="cls-96" cx="86.76" cy="12.29" r="0.96"/><circle class="cls-97" cx="82.4" cy="12.24" r="0.96"/><circle class="cls-98" cx="92.54" cy="15.83" r="0.96"/><circle class="cls-99" cx="96.51" cy="16.61" r="0.96"/><circle class="cls-100" cx="98.88" cy="13.99" r="0.96"/><circle class="cls-101" cx="100.97" cy="11.97" r="0.96"/><circle class="cls-102" cx="78.8" cy="29.26" r="2.2"/><circle class="cls-103" cx="84.48" cy="37.34" r="2.2"/><path class="cls-104" d="M65.49,95.35,91.4,94.24A.79.79,0,0,0,92,93L82.3,77.3a.66.66,0,0,0-1.17.11,2.16,2.16,0,0,1-2.37,1.49.78.78,0,0,0-.85.91c.11.63,0,1-1-.17l-2-3a1.75,1.75,0,0,0-2.47-.5h0a2,2,0,0,0-.85,1.64,2.89,2.89,0,0,1-1.94,2.88,2.81,2.81,0,0,1-2.2-.24A1.44,1.44,0,0,0,66,80.32l-.21.12a1.33,1.33,0,0,0-.49,1.84,2.66,2.66,0,0,1-.79,3.84,1.18,1.18,0,0,0-.43,1.32c.34,1.13.58,3.08-1.46,3.83a1,1,0,0,0-.46,1.38l.88,1.41A2.73,2.73,0,0,0,65.49,95.35Z"/><circle class="cls-105" cx="61.28" cy="88.47" r="2.2"/><circle class="cls-106" cx="62.66" cy="83.6" r="2.2"/><circle class="cls-107" cx="58.24" cy="77.18" r="2.2"/><circle class="cls-108" cx="64.75" cy="69.34" r="2.2"/><circle class="cls-109" cx="58.91" cy="67.67" r="2.2"/><circle class="cls-110" cx="69.13" cy="61.24" r="2.2"/><circle class="cls-111" cx="72.22" cy="70.48" r="2.2"/><circle class="cls-112" cx="59.18" cy="52.93" r="2.2"/><circle class="cls-113" cx="55.09" cy="60.04" r="2.2"/><circle class="cls-114" cx="59.05" cy="84.75" r="0.96"/><circle class="cls-115" cx="57.64" cy="81.19" r="0.96"/><circle class="cls-116" cx="64.07" cy="78.66" r="0.96"/><circle class="cls-117" cx="62.82" cy="75.33" r="0.96"/><circle class="cls-118" cx="57.89" cy="72.5" r="0.96"/><circle class="cls-119" cx="54.86" cy="71.43" r="0.96"/><circle class="cls-120" cx="55.63" cy="74.63" r="0.96"/><circle class="cls-121" cx="63.17" cy="72.14" r="0.96"/><circle class="cls-122" cx="69.07" cy="65.66" r="0.96"/><circle class="cls-123" cx="72.52" cy="65.96" r="0.96"/><circle class="cls-124" cx="75.7" cy="72.98" r="0.96"/><circle class="cls-125" cx="65.63" cy="63" r="0.96"/><circle class="cls-126" cx="63.63" cy="64.46" r="0.96"/><circle class="cls-127" cx="60.91" cy="62.64" r="0.96"/><circle class="cls-128" cx="56.41" cy="56.44" r="0.96"/><circle class="cls-129" cx="60" cy="58.06" r="0.96"/><circle class="cls-130" cx="54.31" cy="51.07" r="0.96"/><circle class="cls-131" cx="56.4" cy="48.41" r="0.96"/><circle class="cls-132" cx="56.67" cy="41.48" r="0.96"/><circle class="cls-133" cx="60.04" cy="46.6" r="0.96"/><circle class="cls-134" cx="55.34" cy="45.32" r="0.96"/><circle class="cls-135" cx="56.94" cy="63.22" r="0.96"/><circle class="cls-136" cx="55.01" cy="67.13" r="0.96"/><circle class="cls-137" cx="62.62" cy="59.52" r="0.96"/><circle class="cls-138" cx="65.04" cy="56.28" r="0.96"/><circle class="cls-139" cx="63.69" cy="53.01" r="0.96"/><circle class="cls-140" cx="62.77" cy="50.25" r="0.96"/><circle class="cls-141" cx="68.83" cy="77.71" r="2.2"/><circle class="cls-142" cx="78.57" cy="76.06" r="2.2"/><path class="cls-143" d="M117.2,123.94l13.9-21.88a.78.78,0,0,0-.62-1.21l-18.47-1a.66.66,0,0,0-.59,1,2.18,2.18,0,0,1-.13,2.81.78.78,0,0,0,.25,1.21c.59.28.88.6-.69.7l-3.61-.15a1.76,1.76,0,0,0-1.82,1.75h0a2,2,0,0,0,.86,1.64,2.9,2.9,0,0,1,1.25,3.23,2.82,2.82,0,0,1-1.45,1.67,1.46,1.46,0,0,0-.91,1.2l0,.25a1.35,1.35,0,0,0,1.23,1.46,2.64,2.64,0,0,1,2.69,2.84,1.21,1.21,0,0,0,.84,1.11c1.13.36,2.86,1.28,2.31,3.38a1,1,0,0,0,.87,1.17l1.66.09A2.73,2.73,0,0,0,117.2,123.94Z"/><circle class="cls-144" cx="109.14" cy="123.47" r="2.2"/><circle class="cls-145" cx="105.94" cy="119.55" r="2.2"/><circle class="cls-146" cx="98.15" cy="119.51" r="2.2"/><circle class="cls-147" cx="95.43" cy="109.68" r="2.2"/><circle class="cls-148" cx="90.72" cy="113.52" r="2.2"/><circle class="cls-149" cx="91.3" cy="101.46" r="2.2"/><circle class="cls-150" cx="100.64" cy="104.21" r="2.2"/><circle class="cls-151" cx="78.79" cy="104.87" r="2.2"/><circle class="cls-152" cx="82.28" cy="112.29" r="2.2"/><circle class="cls-153" cx="104.82" cy="123.17" r="0.96"/><circle class="cls-154" cx="101.09" cy="122.29" r="0.96"/><circle class="cls-155" cx="102.7" cy="115.57" r="0.96"/><circle class="cls-156" cx="99.25" cy="114.69" r="0.96"/><circle class="cls-157" cx="94.11" cy="117.11" r="0.96"/><circle class="cls-158" cx="91.49" cy="118.99" r="0.96"/><circle class="cls-159" cx="94.56" cy="120.19" r="0.96"/><circle class="cls-160" cx="96.83" cy="112.58" r="0.96"/><circle class="cls-161" cx="94.88" cy="104.03" r="0.96"/><circle class="cls-162" cx="97.1" cy="101.37" r="0.96"/><circle class="cls-163" cx="104.68" cy="102.78" r="0.96"/><circle class="cls-164" cx="90.74" cy="105.33" r="0.96"/><circle class="cls-165" cx="90.79" cy="107.81" r="0.96"/><circle class="cls-166" cx="87.74" cy="109" r="0.96"/><circle class="cls-167" cx="80.08" cy="109.14" r="0.96"/><circle class="cls-168" cx="83.47" cy="107.13" r="0.96"/><circle class="cls-169" cx="74.47" cy="107.8" r="0.96"/><circle class="cls-170" cx="73.49" cy="104.57" r="0.96"/><circle class="cls-171" cx="67.96" cy="100.38" r="0.96"/><circle class="cls-172" cx="74.08" cy="100.55" r="0.96"/><circle class="cls-173" cx="70.35" cy="103.67" r="0.96"/><circle class="cls-174" cx="85.95" cy="112.59" r="0.96"/><circle class="cls-175" cx="88.05" cy="116.41" r="0.96"/><circle class="cls-176" cx="86.16" cy="105.82" r="0.96"/><circle class="cls-177" cx="84.88" cy="101.98" r="0.96"/><circle class="cls-178" cx="81.43" cy="101.22" r="0.96"/><circle class="cls-179" cx="78.65" cy="100.39" r="0.96"/><circle class="cls-180" cx="104.63" cy="111.12" r="2.2"/><circle class="cls-181" cx="108.85" cy="102.19" r="2.2"/><path class="cls-182" d="M120.38,69.73a.87.87,0,0,1,.16-1.46,2,2,0,0,0,1.3-2.07c-.31-1.65-.12-2.32.43-2.69s-.8-.79-1.41-1.4.92-1.71-.37-3.6-4.76-2.26-5.55-.68c0,0-1-.18-1.47.49s-.67,1.35-1.4,1.16-2.08,1.29-1.71,1.9-.06.67-.37,1.46.43.12.73.86-1.1,1.89-.73,2.07,1.59-.55,1,.49-.55,1.59.42,1.77,1.9.25,1.84.86-1.35,1.1-1.1,1.59a1.49,1.49,0,0,0,2.32,0c.67-1,1.4-1.29,1.16-.43a3.85,3.85,0,0,1-.49,1.16s-5.07,4.34-3.18,18,11.79,12.45,11.79,12.45l7.37.38s1.49-2,1.55-.25-1.05,1.58-2,3.17a12.3,12.3,0,0,0-1.28,3.61,5.26,5.26,0,0,0-1.65,3.23c0,1.71-2.44,2.26-2.44,3.48s8.61,3.36,8.85,2.45-2.32-2.45-2.13-4,2.22-5,3-6c1-1.34,1.22-5.44,1.71-4.52s.55,5.37,1.59,6.41c.46.46-.12,2.81.67,3.61s.73,1.46,1.53,3c.68,1.37,8.12-1.16,8.85-2.14s-.67-2.38-3-1.52-2.26-2.26-3-3.79c-.63-1.31-.9-3.24-2.19-6a9.16,9.16,0,0,1-.76-3,6.32,6.32,0,0,0-3.34-5.36c-3.46-1.68-9.35-4.6-12.22-5.15a1.09,1.09,0,0,1-.92-1.07c0-2.51.63-5.88-.48-9.17,0,0,.3-1,1.89.42s6.59,2.81,8.79-.3,8-3.93,8.49-4.58c.67-1,.92-3-2.13-2.87s-8.86,4.58-10.33,4.27-3.84-4.88-9.46-6.1A.94.94,0,0,1,120.38,69.73Z"/><path class="cls-183" d="M172.66,25.44s-3.53-5-4.2-4.85,3.1,5,3.37,5.51-4.75,3.21-5.35,4.42,5.46-2.92,5.74-3.26.66-.38,1.6,1.55,3.37,4.42,3.53,3.75-4-5.35-4-6l1.16-1.05c1.43-1.32,4.41-3.36,4.3-3.64s-.61-.11-2.59,1.1S172.66,25.44,172.66,25.44Z"/><path class="cls-184" d="M172.43,26s-3.11-.82-3.32-.53,2.92.95,3.22,1.07-.83,2.89-.66,3.59,1.2-3,1.2-3.25.14-.38,1.17.08,2.84.63,2.69.31-3.41-.81-3.61-1.05l.11-.81a27.66,27.66,0,0,0,.49-2.92c-.14-.07-.28.16-.67,1.32S172.43,26,172.43,26Z"/><path class="cls-185" d="M166.1,34s-1.71-2.44-2-2.36,1.5,2.41,1.63,2.68-2.3,1.55-2.6,2.14,2.65-1.42,2.79-1.58.32-.19.77.75,1.64,2.14,1.72,1.82-1.93-2.6-1.93-2.89l.56-.51a25.14,25.14,0,0,0,2.09-1.76c0-.14-.3-.06-1.26.53S166.1,34,166.1,34Z"/><path class="cls-186" d="M166,34.32s-1.51-.4-1.61-.26,1.42.46,1.56.53-.4,1.4-.32,1.73.59-1.46.59-1.57.06-.18.56,0,1.38.3,1.3.15-1.65-.39-1.75-.51,0-.11.06-.39c.06-.5.3-1.38.24-1.42s-.14.08-.33.64S166,34.32,166,34.32Z"/><path class="cls-187" d="M162.37,17.35s-1.71-2.44-2-2.36,1.5,2.41,1.64,2.68-2.3,1.55-2.6,2.14,2.65-1.42,2.78-1.58.32-.19.78.75,1.63,2.14,1.71,1.82-1.92-2.6-1.92-2.89l.56-.51a22.22,22.22,0,0,0,2.08-1.77c-.05-.13-.29-.05-1.25.54S162.37,17.35,162.37,17.35Z"/><path class="cls-188" d="M162.26,17.63s-1.51-.4-1.61-.26,1.41.46,1.56.52-.4,1.41-.32,1.74.58-1.46.58-1.57.07-.19.57,0,1.38.31,1.3.16-1.65-.39-1.75-.51,0-.11,0-.4a12.56,12.56,0,0,0,.24-1.41c-.06,0-.13.08-.32.64S162.26,17.63,162.26,17.63Z"/><path class="cls-189" d="M153.46,27s-1.71-2.43-2-2.35,1.49,2.41,1.63,2.68-2.3,1.55-2.6,2.14,2.65-1.42,2.79-1.58.32-.19.77.75,1.63,2.14,1.71,1.82-1.92-2.6-1.92-2.89l.56-.51a22.8,22.8,0,0,0,2.09-1.77c-.06-.13-.3,0-1.26.54S153.46,27,153.46,27Z"/><path class="cls-190" d="M153.35,27.24s-1.51-.4-1.61-.26,1.41.46,1.56.52-.4,1.4-.32,1.74.58-1.47.58-1.58.07-.18.57,0,1.38.31,1.3.15-1.65-.39-1.75-.5,0-.12,0-.4a13.45,13.45,0,0,0,.25-1.41c-.07,0-.14.07-.33.64S153.35,27.24,153.35,27.24Z"/><path class="cls-191" d="M144.53,25.86s-1.71-2.43-2-2.35,1.5,2.41,1.63,2.68-2.3,1.55-2.59,2.14,2.65-1.42,2.78-1.58.32-.19.78.75,1.63,2.14,1.71,1.82-1.93-2.6-1.93-2.89c0,0,.17-.14.56-.51a21.44,21.44,0,0,0,2.09-1.77c-.05-.13-.29,0-1.26.54S144.53,25.86,144.53,25.86Z"/><path class="cls-192" d="M144.43,26.15s-1.51-.4-1.62-.26,1.42.46,1.56.52-.4,1.4-.31,1.74.58-1.46.58-1.57.06-.19.56,0,1.38.31,1.31.16-1.65-.4-1.75-.51,0-.12.05-.4a12.56,12.56,0,0,0,.24-1.41c-.07,0-.14.08-.32.64S144.43,26.15,144.43,26.15Z"/><path class="cls-193" d="M182.26,29.09s-1.71-2.43-2-2.35,1.5,2.4,1.63,2.67-2.3,1.55-2.6,2.14,2.65-1.42,2.79-1.58.32-.18.77.75,1.64,2.14,1.72,1.82-1.93-2.59-1.93-2.89l.56-.51a25.14,25.14,0,0,0,2.09-1.76c-.06-.14-.3-.06-1.26.53S182.26,29.09,182.26,29.09Z"/><path class="cls-194" d="M182.15,29.37s-1.51-.39-1.61-.25,1.42.46,1.56.52-.4,1.4-.32,1.74.59-1.47.59-1.58.06-.18.56,0,1.38.31,1.3.15-1.65-.39-1.75-.51,0-.11.06-.39c.06-.49.3-1.38.24-1.42s-.14.08-.33.64S182.15,29.37,182.15,29.37Z"/><path class="cls-195" d="M189.18,26.2s-1.08-1.54-1.28-1.49.95,1.52,1,1.69-1.45,1-1.63,1.35,1.66-.9,1.75-1,.2-.11.49.48,1,1.34,1.08,1.14-1.22-1.63-1.22-1.82l.36-.32c.43-.4,1.34-1,1.31-1.11s-.18,0-.79.34S189.18,26.2,189.18,26.2Z"/><path class="cls-196" d="M189.11,26.38a4,4,0,0,0-1-.17c-.06.09.89.29,1,.33s-.25.89-.2,1.1.37-.93.37-1,0-.11.35,0,.87.19.82.09-1-.24-1.1-.32l0-.24a8,8,0,0,0,.15-.9s-.09.05-.21.41S189.11,26.38,189.11,26.38Z"/><path class="cls-197" d="M191.38,32s-1.08-1.53-1.28-1.48.94,1.51,1,1.68-1.45,1-1.64,1.35,1.67-.89,1.76-1,.2-.12.49.47,1,1.34,1.07,1.14-1.21-1.63-1.21-1.82L192,32a16.19,16.19,0,0,0,1.32-1.11c0-.08-.19,0-.79.34S191.38,32,191.38,32Z"/><path class="cls-198" d="M191.31,32.18s-.95-.25-1-.16.89.29,1,.32-.25.89-.2,1.1.37-.92.37-1,0-.12.35,0,.87.19.82.1-1-.25-1.1-.32,0-.07,0-.25.2-.87.16-.89-.09.05-.21.4A6.82,6.82,0,0,0,191.31,32.18Z"/></g></g></svg>