<svg xmlns="http://www.w3.org/2000/svg" viewBox="0 0 249.4 158.6"><defs><style>.cls-1{fill:#fff;}.cls-2{fill:none;stroke:#fff;stroke-linecap:round;stroke-linejoin:round;stroke-width:0.72px;}</style></defs><g id="图层_2" data-name="图层 2"><g id="图层_1-2" data-name="图层 1"><path class="cls-1" d="M0,134a29.78,29.78,0,0,1,2.77,13.42c-.27,7.56-1.25,9.46-1.25,9.46s12.56-3,11.8-11S3.59,133.57,0,134Z"/><path class="cls-1" d="M18.6,135.52s-1.74.18-1.93,2.52,0,17.4,1.56,18.36,3.57-.54,4.17-2.61.14-3,.32-3.48.69-.18.87.64,2.33,5.23,6.46,5.45c0,0,2,.37,1.42-1.28s-4.54-7.1-3.3-9.52a5.42,5.42,0,0,1,2.47-1.88c1.33-.32,2-2.38,1.88-3.71s-5.27-2.66-5.91.41c0,0-2.84,2.7-5.6,2.9a.53.53,0,0,1-.59-.53l-.07-4.1a.59.59,0,0,1,.45-.6,6.86,6.86,0,0,1,4.12,0s4.81-1.65,4.72-2.38S18.6,135.52,18.6,135.52Z"/><path class="cls-1" d="M24.41,138s2.71,1,1.8,2.8l6.31-.93S30.09,135,29,135.61,24.41,138,24.41,138Z"/><path class="cls-1" d="M40.66,137.74l7.84-.05a.63.63,0,0,0,.64-.62A2.14,2.14,0,0,0,48,134.85c-1.25-.53-8.82-.21-11.53-.08a1,1,0,0,0-1,1c-.1,3.39-.33,14.88,1.21,19.63a2,2,0,0,0,1.62,1.38c1.7.29,5.28.45,11-1.39a.92.92,0,0,0,.63-.78c.11-1.2.29-3.86-.25-4.14-.31-.16-8.3,1.28-8.46,0,0-.24-.09-3.51.25-3.57s5.46.18,6.23-2a2.57,2.57,0,0,0-.22-1.46c-.33-.43-7,.43-7.84-1.93a4.44,4.44,0,0,1,.06-3.25A1,1,0,0,1,40.66,137.74Z"/><path class="cls-1" d="M53.17,155.15a1.19,1.19,0,0,0,.94,1.33,3.43,3.43,0,0,0,3.24-.85c1.78-1.79,2.88-6.74,3.8-5.23s1.23,4.58,5.17,5.18c0,0,2.7.41,2.8.14.36-1,0-4.49-2-11.68s-5.22-8.8-6.73-8.29-3.25,2.2-5.45,9.57c0,0,3.63,1.86,4.09.86s-.15-4.48.4-4.89,2.75-.64,3,.5.23,3.94.73,4.17-4.12,1-5.26,2.89-4.45,4.21-4.45,4.21Z"/><path class="cls-1" d="M62.14,146.09a3.28,3.28,0,0,1-.69.1,6.9,6.9,0,0,1-2.29-.26c-.27-.24-.41-1.69-.41-1.69l-3.83,1.08s-1.7,6.69-1.54,8.92l8.24-5.44,2.75-2.87-1.24-.09Z"/><path class="cls-1" d="M72.85,155.16a1.44,1.44,0,0,0,1.38,1.34,4,4,0,0,0,2.08-.28c.59-.55,2.66-8.84,3.07-8.84s2.65,2.93,3.75,2.7,1.79-2.65,2.48-2.7,1.33,2.7,1.28,4.67,0,4.42,3.07,4.68c2.24.18,2.15-.46,2.15-1.61s1.7-8.79.37-14.75c0,0-.28-2.61-.51-3.57s-2.58-1.38-3.06-1.28c-1.1.23-2.94,7.24-5.41,7.19-.78,0-1.65-7.47-6.09-7.56C73.42,135.07,72.49,150.23,72.85,155.16Z"/><path class="cls-1" d="M124.68,136.2s-7.77,4.57-7.5,12a12.56,12.56,0,0,0,6,10.43s-12.73-3-12-10.8S121.05,135.83,124.68,136.2Z"/><path class="cls-1" d="M128.28,136.39s-1.74.18-1.92,2.52,0,17.4,1.55,18.37,3.58-.55,4.17-2.62.14-3,.32-3.48.69-.18.87.64,2.34,5.23,6.46,5.46c0,0,2,.36,1.42-1.29s-4.53-7.1-3.3-9.52a5.47,5.47,0,0,1,2.48-1.88c1.33-.32,2-2.38,1.88-3.71s-5.27-2.66-5.91.41c0,0-2.84,2.7-5.61,2.9a.54.54,0,0,1-.59-.53l-.07-4.1a.61.61,0,0,1,.45-.6,6.86,6.86,0,0,1,4.12,0s4.81-1.65,4.72-2.38S128.28,136.39,128.28,136.39Z"/><path class="cls-1" d="M134.1,138.82s2.7,1,1.8,2.8l6.31-.93s-2.43-4.81-3.53-4.21S134.1,138.82,134.1,138.82Z"/><path class="cls-1" d="M220,135.7s-1.74.18-1.92,2.52,0,17.41,1.55,18.37,3.58-.55,4.17-2.61.14-3,.32-3.48.69-.19.87.64,2.34,5.22,6.46,5.45c0,0,2,.36,1.42-1.28s-4.53-7.1-3.3-9.53A5.47,5.47,0,0,1,232,143.9c1.32-.32,2-2.38,1.87-3.71s-5.26-2.66-5.9.41c0,0-2.84,2.7-5.61,2.91a.55.55,0,0,1-.59-.53l-.07-4.11a.6.6,0,0,1,.45-.6,6.94,6.94,0,0,1,4.12,0s4.81-1.65,4.72-2.38S220,135.7,220,135.7Z"/><path class="cls-1" d="M225.77,138.13s2.7,1,1.79,2.8l6.31-.92s-2.42-4.81-3.52-4.22S225.77,138.13,225.77,138.13Z"/><path class="cls-1" d="M151.66,138.9l7.84-.05a.64.64,0,0,0,.64-.62A2.14,2.14,0,0,0,159,136c-1.25-.53-8.82-.21-11.53-.08a1,1,0,0,0-1,1c-.11,3.39-.33,14.88,1.2,19.63a2,2,0,0,0,1.63,1.38c1.7.29,5.28.46,11-1.39a.9.9,0,0,0,.62-.77c.12-1.21.3-3.87-.24-4.15-.31-.16-8.3,1.28-8.46,0,0-.24-.09-3.51.25-3.57s5.46.18,6.23-2a2.57,2.57,0,0,0-.22-1.46c-.33-.43-7,.43-7.85-1.92a4.5,4.5,0,0,1,.07-3.26A1,1,0,0,1,151.66,138.9Z"/><path class="cls-1" d="M164.87,155.79a1.19,1.19,0,0,0,.94,1.33,3.43,3.43,0,0,0,3.24-.85c1.78-1.79,2.88-6.74,3.8-5.22s1.24,4.58,5.17,5.17c0,0,2.7.41,2.8.14.36-1,0-4.49-2-11.68s-5.22-8.8-6.73-8.29-3.25,2.2-5.45,9.57c0,0,3.63,1.86,4.09.86s-.15-4.48.4-4.89,2.75-.64,3,.5.23,3.94.73,4.17-4.12,1-5.26,2.89-4.45,4.21-4.45,4.21Z"/><path class="cls-1" d="M173.84,146.73a3.28,3.28,0,0,1-.69.1,6.9,6.9,0,0,1-2.29-.26c-.27-.24-.41-1.69-.41-1.69L166.62,146s-1.7,6.69-1.54,8.92l8.24-5.44,2.75-2.87-1.24-.09Z"/><path class="cls-1" d="M182.05,138.77a19.93,19.93,0,0,1,3.64.23.78.78,0,0,0,.94-.72c.08-1.21.29-3,.87-3.34.9-.56,4.14-1.29,4.59.73s-.34,2.91.67,2.91,3.13-1.23,4.25.22.11,3.13-.81,3.81c-.27.19-4.33-.31-4.75.53s-1.32,11.19.92,9.84,4.08-.86,3.75.81-6.24,6-9.32,1.57c-1.61-2.32-1.42-8.31-1.25-11a1.11,1.11,0,0,0-1.15-1.19c-1,0-2.31,0-2.77-.5A2.69,2.69,0,0,1,182.05,138.77Z"/><path class="cls-1" d="M207.25,136.6c-4.34,0-7.85,4.58-7.85,10.24s3.51,10.24,7.85,10.24,7.84-4.59,7.84-10.24S211.58,136.6,207.25,136.6Zm.27,16.79c-1.65,0-3-2.66-3-5.93s1.34-5.93,3-5.93,3,2.66,3,5.93S209.17,153.39,207.52,153.39Z"/><path class="cls-1" d="M240.2,135.65a5.16,5.16,0,0,1,5.51-1.41c1.18.41,2.27,1.19,2.18,2.65-.18,3.12-3.21.09-5,3s2.34,4.48,5.13,7.78c3.94,4.67-.91,9.35-7.51,9s-4.13-4.48-2.11-4.76c1.53-.22,4.71.26,4.86-2.2.19-3.27-6.69-7.79-4.67-11.64A11.58,11.58,0,0,1,240.2,135.65Z"/><path class="cls-1" d="M112.36,2.06l-13,22.43a.79.79,0,0,0,.67,1.18l18.51.26a.65.65,0,0,0,.54-1,2.18,2.18,0,0,1,0-2.81.77.77,0,0,0-.3-1.2c-.6-.25-.89-.56.67-.73h3.61a1.74,1.74,0,0,0,1.75-1.81h0a2,2,0,0,0-.93-1.6,2.91,2.91,0,0,1-1.38-3.18,2.79,2.79,0,0,1,1.39-1.73,1.46,1.46,0,0,0,.85-1.24v-.25a1.34,1.34,0,0,0-1.28-1.41,2.64,2.64,0,0,1-2.81-2.73,1.22,1.22,0,0,0-.89-1.07c-1.14-.32-2.91-1.16-2.44-3.28a.94.94,0,0,0-.92-1.13l-1.66,0A2.75,2.75,0,0,0,112.36,2.06Z"/><circle class="cls-1" cx="120.43" cy="2.2" r="2.2"/><circle class="cls-1" cx="123.79" cy="5.99" r="2.2"/><circle class="cls-1" cx="131.58" cy="5.71" r="2.2"/><circle class="cls-1" cx="134.69" cy="15.42" r="2.2"/><circle class="cls-1" cx="139.24" cy="11.39" r="2.2"/><circle class="cls-1" cx="138.24" cy="24.4" r="2.2"/><circle class="cls-1" cx="129.72" cy="21.1" r="2.2"/><circle class="cls-1" cx="151.52" cy="19.54" r="2.2"/><circle class="cls-1" cx="148.07" cy="13.53" r="2.2"/><circle class="cls-1" cx="124.77" cy="2.32" r="0.96"/><circle class="cls-1" cx="128.53" cy="3.05" r="0.96"/><circle class="cls-1" cx="127.2" cy="9.83" r="0.96"/><circle class="cls-1" cx="130.68" cy="10.57" r="0.96"/><circle class="cls-1" cx="135.72" cy="7.94" r="0.96"/><circle class="cls-1" cx="129.18" cy="27.48" r="0.96"/><circle class="cls-1" cx="129.46" cy="14.87" r="0.96"/><circle class="cls-1" cx="133.18" cy="12.58" r="0.96"/><circle class="cls-1" cx="135.47" cy="21.04" r="0.96"/><circle class="cls-1" cx="133.37" cy="23.79" r="0.96"/><circle class="cls-1" cx="125.73" cy="22.69" r="0.96"/><circle class="cls-1" cx="139.56" cy="19.57" r="0.96"/><circle class="cls-1" cx="139.41" cy="17.1" r="0.96"/><circle class="cls-1" cx="142.4" cy="15.79" r="0.96"/><circle class="cls-1" cx="146.82" cy="9.22" r="0.96"/><circle class="cls-1" cx="164.34" cy="23.85" r="0.96"/><circle class="cls-1" cx="166.73" cy="17.83" r="0.96"/><circle class="cls-1" cx="171.86" cy="33.28" r="0.96"/><circle class="cls-1" cx="166.6" cy="27.54" r="0.96"/><circle class="cls-1" cx="156.74" cy="12.83" r="0.96"/><circle class="cls-1" cx="171.55" cy="21.01" r="0.96"/><circle class="cls-1" cx="146.76" cy="17.48" r="0.96"/><circle class="cls-1" cx="152.07" cy="10.63" r="0.96"/><circle class="cls-1" cx="156.83" cy="19.63" r="0.96"/><circle class="cls-1" cx="159.9" cy="22.8" r="0.96"/><circle class="cls-1" cx="157.61" cy="27.24" r="0.96"/><circle class="cls-1" cx="161.32" cy="28.29" r="0.96"/><circle class="cls-1" cx="144.05" cy="12.12" r="0.96"/><circle class="cls-1" cx="142.34" cy="7.54" r="0.96"/><circle class="cls-1" cx="144.11" cy="18.9" r="0.96"/><circle class="cls-1" cx="145.55" cy="22.69" r="0.96"/><circle class="cls-1" cx="149.03" cy="23.31" r="0.96"/><circle class="cls-1" cx="151.34" cy="26.56" r="0.96"/><circle class="cls-1" cx="125.44" cy="14.35" r="2.2"/><circle class="cls-1" cx="121.59" cy="23.45" r="2.2"/><path class="cls-1" d="M61.44,33.85,73.6,56.76a.79.79,0,0,0,1.36.05L85,41.25a.65.65,0,0,0-.59-1A2.18,2.18,0,0,1,82,38.74a.78.78,0,0,0-1.18-.38c-.53.37-.95.46-.27-1l1.92-3.07a1.75,1.75,0,0,0-.62-2.44h0A2,2,0,0,0,80,31.84a2.91,2.91,0,0,1-3.43-.51,2.82,2.82,0,0,1-.73-2.09,1.45,1.45,0,0,0-.6-1.38L75,27.71a1.34,1.34,0,0,0-1.87.35,2.63,2.63,0,0,1-3.8.94,1.2,1.2,0,0,0-1.38.19c-.87.79-2.53,1.85-4.08.33a1,1,0,0,0-1.45.18l-.89,1.39A2.75,2.75,0,0,0,61.44,33.85Z"/><circle class="cls-1" cx="65.84" cy="27.08" r="2.2"/><circle class="cls-1" cx="70.83" cy="26.23" r="2.2"/><circle class="cls-1" cx="74.71" cy="19.48" r="2.2"/><circle class="cls-1" cx="84.6" cy="21.98" r="2.2"/><circle class="cls-1" cx="83.59" cy="15.98" r="2.2"/><circle class="cls-1" cx="93.79" cy="22.44" r="2.2"/><circle class="cls-1" cx="86.79" cy="29.21" r="2.2"/><circle class="cls-1" cx="97" cy="9.88" r="2.2"/><circle class="cls-1" cx="88.83" cy="9.25" r="2.2"/><circle class="cls-1" cx="68.23" cy="23.47" r="0.96"/><circle class="cls-1" cx="70.84" cy="20.67" r="0.96"/><circle class="cls-1" cx="75.89" cy="25.38" r="0.96"/><circle class="cls-1" cx="78.36" cy="22.82" r="0.96"/><circle class="cls-1" cx="78.79" cy="17.15" r="0.96"/><circle class="cls-1" cx="78.45" cy="13.95" r="0.96"/><circle class="cls-1" cx="75.9" cy="16.03" r="0.96"/><circle class="cls-1" cx="81.39" cy="21.76" r="0.96"/><circle class="cls-1" cx="89.78" cy="24.29" r="0.96"/><circle class="cls-1" cx="91" cy="27.53" r="0.96"/><circle class="cls-1" cx="86.03" cy="33.43" r="0.96"/><circle class="cls-1" cx="90.7" cy="20.04" r="0.96"/><circle class="cls-1" cx="88.52" cy="18.86" r="0.96"/><circle class="cls-1" cx="88.99" cy="15.63" r="0.96"/><circle class="cls-1" cx="92.65" cy="8.9" r="0.96"/><circle class="cls-1" cx="92.73" cy="12.83" r="0.96"/><circle class="cls-1" cx="96.59" cy="4.68" r="0.96"/><circle class="cls-1" cx="99.89" cy="5.42" r="0.96"/><circle class="cls-1" cx="106.26" cy="2.69" r="0.96"/><circle class="cls-1" cx="103.09" cy="7.93" r="0.96"/><circle class="cls-1" cx="102.22" cy="3.14" r="0.96"/><circle class="cls-1" cx="86.76" cy="12.29" r="0.96"/><circle class="cls-1" cx="82.4" cy="12.24" r="0.96"/><circle class="cls-1" cx="92.54" cy="15.83" r="0.96"/><circle class="cls-1" cx="96.51" cy="16.61" r="0.96"/><circle class="cls-1" cx="98.88" cy="13.99" r="0.96"/><circle class="cls-1" cx="100.97" cy="11.97" r="0.96"/><circle class="cls-1" cx="78.8" cy="29.26" r="2.2"/><circle class="cls-1" cx="84.48" cy="37.34" r="2.2"/><path class="cls-1" d="M65.49,95.35,91.4,94.24A.79.79,0,0,0,92,93L82.3,77.3a.66.66,0,0,0-1.17.11,2.16,2.16,0,0,1-2.37,1.49.78.78,0,0,0-.85.91c.11.63,0,1-1-.17l-2-3a1.75,1.75,0,0,0-2.47-.5h0a2,2,0,0,0-.85,1.64,2.89,2.89,0,0,1-1.94,2.88,2.81,2.81,0,0,1-2.2-.24A1.44,1.44,0,0,0,66,80.32l-.21.12a1.33,1.33,0,0,0-.49,1.84,2.66,2.66,0,0,1-.79,3.84,1.18,1.18,0,0,0-.43,1.32c.34,1.13.58,3.08-1.46,3.83a1,1,0,0,0-.46,1.38l.88,1.41A2.73,2.73,0,0,0,65.49,95.35Z"/><circle class="cls-1" cx="61.28" cy="88.47" r="2.2"/><circle class="cls-1" cx="62.66" cy="83.6" r="2.2"/><circle class="cls-1" cx="58.24" cy="77.18" r="2.2"/><circle class="cls-1" cx="64.75" cy="69.34" r="2.2"/><circle class="cls-1" cx="58.91" cy="67.67" r="2.2"/><circle class="cls-1" cx="69.13" cy="61.24" r="2.2"/><circle class="cls-1" cx="72.22" cy="70.48" r="2.2"/><circle class="cls-1" cx="59.18" cy="52.93" r="2.2"/><circle class="cls-1" cx="55.09" cy="60.04" r="2.2"/><circle class="cls-1" cx="59.05" cy="84.75" r="0.96"/><circle class="cls-1" cx="57.64" cy="81.19" r="0.96"/><circle class="cls-1" cx="64.07" cy="78.66" r="0.96"/><circle class="cls-1" cx="62.82" cy="75.33" r="0.96"/><circle class="cls-1" cx="57.89" cy="72.5" r="0.96"/><circle class="cls-1" cx="54.86" cy="71.43" r="0.96"/><circle class="cls-1" cx="55.63" cy="74.63" r="0.96"/><circle class="cls-1" cx="63.17" cy="72.14" r="0.96"/><circle class="cls-1" cx="69.07" cy="65.66" r="0.96"/><circle class="cls-1" cx="72.52" cy="65.96" r="0.96"/><circle class="cls-1" cx="75.7" cy="72.98" r="0.96"/><circle class="cls-1" cx="65.63" cy="63" r="0.96"/><circle class="cls-1" cx="63.63" cy="64.46" r="0.96"/><circle class="cls-1" cx="60.91" cy="62.64" r="0.96"/><circle class="cls-1" cx="56.41" cy="56.44" r="0.96"/><circle class="cls-1" cx="60" cy="58.06" r="0.96"/><circle class="cls-1" cx="54.31" cy="51.07" r="0.96"/><circle class="cls-1" cx="56.4" cy="48.41" r="0.96"/><circle class="cls-1" cx="56.67" cy="41.48" r="0.96"/><circle class="cls-1" cx="60.04" cy="46.6" r="0.96"/><circle class="cls-1" cx="55.34" cy="45.32" r="0.96"/><circle class="cls-1" cx="56.94" cy="63.22" r="0.96"/><circle class="cls-1" cx="55.01" cy="67.13" r="0.96"/><circle class="cls-1" cx="62.62" cy="59.52" r="0.96"/><circle class="cls-1" cx="65.04" cy="56.28" r="0.96"/><circle class="cls-1" cx="63.69" cy="53.01" r="0.96"/><circle class="cls-1" cx="62.77" cy="50.25" r="0.96"/><circle class="cls-1" cx="68.83" cy="77.71" r="2.2"/><circle class="cls-1" cx="78.57" cy="76.06" r="2.2"/><path class="cls-1" d="M117.2,123.94l13.9-21.88a.78.78,0,0,0-.62-1.21l-18.47-1a.66.66,0,0,0-.59,1,2.18,2.18,0,0,1-.13,2.81.78.78,0,0,0,.25,1.21c.59.28.88.6-.69.7l-3.61-.15a1.76,1.76,0,0,0-1.82,1.75h0a2,2,0,0,0,.86,1.64,2.9,2.9,0,0,1,1.25,3.23,2.82,2.82,0,0,1-1.45,1.67,1.46,1.46,0,0,0-.91,1.2l0,.25a1.35,1.35,0,0,0,1.23,1.46,2.64,2.64,0,0,1,2.69,2.84,1.21,1.21,0,0,0,.84,1.11c1.13.36,2.86,1.28,2.31,3.38a1,1,0,0,0,.87,1.17l1.66.09A2.73,2.73,0,0,0,117.2,123.94Z"/><circle class="cls-1" cx="109.14" cy="123.47" r="2.2"/><circle class="cls-1" cx="105.94" cy="119.55" r="2.2"/><circle class="cls-1" cx="98.15" cy="119.51" r="2.2"/><circle class="cls-1" cx="95.43" cy="109.68" r="2.2"/><circle class="cls-1" cx="90.72" cy="113.52" r="2.2"/><circle class="cls-1" cx="91.3" cy="101.46" r="2.2"/><circle class="cls-1" cx="100.64" cy="104.21" r="2.2"/><circle class="cls-1" cx="78.79" cy="104.87" r="2.2"/><circle class="cls-1" cx="82.28" cy="112.29" r="2.2"/><circle class="cls-1" cx="104.82" cy="123.17" r="0.96"/><circle class="cls-1" cx="101.09" cy="122.29" r="0.96"/><circle class="cls-1" cx="102.7" cy="115.57" r="0.96"/><circle class="cls-1" cx="99.25" cy="114.69" r="0.96"/><circle class="cls-1" cx="94.11" cy="117.11" r="0.96"/><circle class="cls-1" cx="91.49" cy="118.99" r="0.96"/><circle class="cls-1" cx="94.56" cy="120.19" r="0.96"/><circle class="cls-1" cx="96.83" cy="112.58" r="0.96"/><circle class="cls-1" cx="94.88" cy="104.03" r="0.96"/><circle class="cls-1" cx="97.1" cy="101.37" r="0.96"/><circle class="cls-1" cx="104.68" cy="102.78" r="0.96"/><circle class="cls-1" cx="90.74" cy="105.33" r="0.96"/><circle class="cls-1" cx="90.79" cy="107.81" r="0.96"/><circle class="cls-1" cx="87.74" cy="109" r="0.96"/><circle class="cls-1" cx="80.08" cy="109.14" r="0.96"/><circle class="cls-1" cx="83.47" cy="107.13" r="0.96"/><circle class="cls-1" cx="74.47" cy="107.8" r="0.96"/><circle class="cls-1" cx="73.49" cy="104.57" r="0.96"/><circle class="cls-1" cx="67.96" cy="100.38" r="0.96"/><circle class="cls-1" cx="74.08" cy="100.55" r="0.96"/><circle class="cls-1" cx="70.35" cy="103.67" r="0.96"/><circle class="cls-1" cx="85.95" cy="112.59" r="0.96"/><circle class="cls-1" cx="88.05" cy="116.41" r="0.96"/><circle class="cls-1" cx="86.16" cy="105.82" r="0.96"/><circle class="cls-1" cx="84.88" cy="101.98" r="0.96"/><circle class="cls-1" cx="81.43" cy="101.22" r="0.96"/><circle class="cls-1" cx="78.65" cy="100.39" r="0.96"/><circle class="cls-1" cx="104.63" cy="111.12" r="2.2"/><circle class="cls-1" cx="108.85" cy="102.19" r="2.2"/><path class="cls-1" d="M120.38,69.73a.87.87,0,0,1,.16-1.46,2,2,0,0,0,1.3-2.07c-.31-1.65-.12-2.32.43-2.69s-.8-.79-1.41-1.4.92-1.71-.37-3.6-4.76-2.26-5.55-.68c0,0-1-.18-1.47.49s-.67,1.35-1.4,1.16-2.08,1.29-1.71,1.9-.06.67-.37,1.46.43.12.73.86-1.1,1.89-.73,2.07,1.59-.55,1,.49-.55,1.59.42,1.77,1.9.25,1.84.86-1.35,1.1-1.1,1.59a1.49,1.49,0,0,0,2.32,0c.67-1,1.4-1.29,1.16-.43a3.85,3.85,0,0,1-.49,1.16s-5.07,4.34-3.18,18,11.79,12.45,11.79,12.45l7.37.38s1.49-2,1.55-.25-1.05,1.58-2,3.17a12.3,12.3,0,0,0-1.28,3.61,5.26,5.26,0,0,0-1.65,3.23c0,1.71-2.44,2.26-2.44,3.48s8.61,3.36,8.85,2.45-2.32-2.45-2.13-4,2.22-5,3-6c1-1.34,1.22-5.44,1.71-4.52s.55,5.37,1.59,6.41c.46.46-.12,2.81.67,3.61s.73,1.46,1.53,3c.68,1.37,8.12-1.16,8.85-2.14s-.67-2.38-3-1.52-2.26-2.26-3-3.79c-.63-1.31-.9-3.24-2.19-6a9.16,9.16,0,0,1-.76-3,6.32,6.32,0,0,0-3.34-5.36c-3.46-1.68-9.35-4.6-12.22-5.15a1.09,1.09,0,0,1-.92-1.07c0-2.51.63-5.88-.48-9.17,0,0,.3-1,1.89.42s6.59,2.81,8.79-.3,8-3.93,8.49-4.58c.67-1,.92-3-2.13-2.87s-8.86,4.58-10.33,4.27-3.84-4.88-9.46-6.1A.94.94,0,0,1,120.38,69.73Z"/><path class="cls-2" d="M138.88,88.25s3.48-10.81,1.46-15.21,1.29-13.19,14.29-18.69c13.32-5.62,24.55-8.79,18.14-28.58"/><path class="cls-1" d="M172.66,25.44s-3.53-5-4.2-4.85,3.1,5,3.37,5.51-4.75,3.21-5.35,4.42,5.46-2.92,5.74-3.26.66-.38,1.6,1.55,3.37,4.42,3.53,3.75-4-5.35-4-6l1.16-1.05c1.43-1.32,4.41-3.36,4.3-3.64s-.61-.11-2.59,1.1S172.66,25.44,172.66,25.44Z"/><path class="cls-1" d="M172.43,26s-3.11-.82-3.32-.53,2.92.95,3.22,1.07-.83,2.89-.66,3.59,1.2-3,1.2-3.25.14-.38,1.17.08,2.84.63,2.69.31-3.41-.81-3.61-1.05l.11-.81a27.66,27.66,0,0,0,.49-2.92c-.14-.07-.28.16-.67,1.32S172.43,26,172.43,26Z"/><path class="cls-1" d="M166.1,34s-1.71-2.44-2-2.36,1.5,2.41,1.63,2.68-2.3,1.55-2.6,2.14,2.65-1.42,2.79-1.58.32-.19.77.75,1.64,2.14,1.72,1.82-1.93-2.6-1.93-2.89l.56-.51a25.14,25.14,0,0,0,2.09-1.76c0-.14-.3-.06-1.26.53S166.1,34,166.1,34Z"/><path class="cls-1" d="M166,34.32s-1.51-.4-1.61-.26,1.42.46,1.56.53-.4,1.4-.32,1.73.59-1.46.59-1.57.06-.18.56,0,1.38.3,1.3.15-1.65-.39-1.75-.51,0-.11.06-.39c.06-.5.3-1.38.24-1.42s-.14.08-.33.64S166,34.32,166,34.32Z"/><path class="cls-1" d="M162.37,17.35s-1.71-2.44-2-2.36,1.5,2.41,1.64,2.68-2.3,1.55-2.6,2.14,2.65-1.42,2.78-1.58.32-.19.78.75,1.63,2.14,1.71,1.82-1.92-2.6-1.92-2.89l.56-.51a22.22,22.22,0,0,0,2.08-1.77c-.05-.13-.29-.05-1.25.54S162.37,17.35,162.37,17.35Z"/><path class="cls-1" d="M162.26,17.63s-1.51-.4-1.61-.26,1.41.46,1.56.52-.4,1.41-.32,1.74.58-1.46.58-1.57.07-.19.57,0,1.38.31,1.3.16-1.65-.39-1.75-.51,0-.11,0-.4a12.56,12.56,0,0,0,.24-1.41c-.06,0-.13.08-.32.64S162.26,17.63,162.26,17.63Z"/><path class="cls-1" d="M153.46,27s-1.71-2.43-2-2.35,1.49,2.41,1.63,2.68-2.3,1.55-2.6,2.14,2.65-1.42,2.79-1.58.32-.19.77.75,1.63,2.14,1.71,1.82-1.92-2.6-1.92-2.89l.56-.51a22.8,22.8,0,0,0,2.09-1.77c-.06-.13-.3,0-1.26.54S153.46,27,153.46,27Z"/><path class="cls-1" d="M153.35,27.24s-1.51-.4-1.61-.26,1.41.46,1.56.52-.4,1.4-.32,1.74.58-1.47.58-1.58.07-.18.57,0,1.38.31,1.3.15-1.65-.39-1.75-.5,0-.12,0-.4a13.45,13.45,0,0,0,.25-1.41c-.07,0-.14.07-.33.64S153.35,27.24,153.35,27.24Z"/><path class="cls-1" d="M144.53,25.86s-1.71-2.43-2-2.35,1.5,2.41,1.63,2.68-2.3,1.55-2.59,2.14,2.65-1.42,2.78-1.58.32-.19.78.75,1.63,2.14,1.71,1.82-1.93-2.6-1.93-2.89c0,0,.17-.14.56-.51a21.44,21.44,0,0,0,2.09-1.77c-.05-.13-.29,0-1.26.54S144.53,25.86,144.53,25.86Z"/><path class="cls-1" d="M144.43,26.15s-1.51-.4-1.62-.26,1.42.46,1.56.52-.4,1.4-.31,1.74.58-1.46.58-1.57.06-.19.56,0,1.38.31,1.31.16-1.65-.4-1.75-.51,0-.12.05-.4a12.56,12.56,0,0,0,.24-1.41c-.07,0-.14.08-.32.64S144.43,26.15,144.43,26.15Z"/><path class="cls-1" d="M182.26,29.09s-1.71-2.43-2-2.35,1.5,2.4,1.63,2.67-2.3,1.55-2.6,2.14,2.65-1.42,2.79-1.58.32-.18.77.75,1.64,2.14,1.72,1.82-1.93-2.59-1.93-2.89l.56-.51a25.14,25.14,0,0,0,2.09-1.76c-.06-.14-.3-.06-1.26.53S182.26,29.09,182.26,29.09Z"/><path class="cls-1" d="M182.15,29.37s-1.51-.39-1.61-.25,1.42.46,1.56.52-.4,1.4-.32,1.74.59-1.47.59-1.58.06-.18.56,0,1.38.31,1.3.15-1.65-.39-1.75-.51,0-.11.06-.39c.06-.49.3-1.38.24-1.42s-.14.08-.33.64S182.15,29.37,182.15,29.37Z"/><path class="cls-1" d="M189.18,26.2s-1.08-1.54-1.28-1.49.95,1.52,1,1.69-1.45,1-1.63,1.35,1.66-.9,1.75-1,.2-.11.49.48,1,1.34,1.08,1.14-1.22-1.63-1.22-1.82l.36-.32c.43-.4,1.34-1,1.31-1.11s-.18,0-.79.34S189.18,26.2,189.18,26.2Z"/><path class="cls-1" d="M189.11,26.38a4,4,0,0,0-1-.17c-.06.09.89.29,1,.33s-.25.89-.2,1.1.37-.93.37-1,0-.11.35,0,.87.19.82.09-1-.24-1.1-.32l0-.24a8,8,0,0,0,.15-.9s-.09.05-.21.41S189.11,26.38,189.11,26.38Z"/><path class="cls-1" d="M191.38,32s-1.08-1.53-1.28-1.48.94,1.51,1,1.68-1.45,1-1.64,1.35,1.67-.89,1.76-1,.2-.12.49.47,1,1.34,1.07,1.14-1.21-1.63-1.21-1.82L192,32a16.19,16.19,0,0,0,1.32-1.11c0-.08-.19,0-.79.34S191.38,32,191.38,32Z"/><path class="cls-1" d="M191.31,32.18s-.95-.25-1-.16.89.29,1,.32-.25.89-.2,1.1.37-.92.37-1,0-.12.35,0,.87.19.82.1-1-.25-1.1-.32,0-.07,0-.25.2-.87.16-.89-.09.05-.21.4A6.82,6.82,0,0,0,191.31,32.18Z"/></g></g></svg>